<svg width="31" height="31" viewBox="0 0 31 31" fill="none" xmlns="http://www.w3.org/2000/svg">
<path d="M4.20203 8.70074L3.13855 9.76422H4.40515L4.39343 9.7193L4.28601 9.30719C4.23703 9.11943 4.22895 8.9231 4.26257 8.73199L4.2821 8.61969L4.20203 8.70074ZM5.40906 8.25739C5.30442 8.25739 5.20378 8.29867 5.12976 8.37262C5.05576 8.44662 5.01456 8.54726 5.01453 8.65192C5.01453 8.75661 5.05573 8.85718 5.12976 8.93121C5.20379 9.00523 5.30437 9.04645 5.40906 9.04645C5.5137 9.04641 5.61436 9.00521 5.68835 8.93121C5.7623 8.8572 5.80359 8.75655 5.80359 8.65192C5.80356 8.54727 5.76235 8.44662 5.68835 8.37262C5.61436 8.29862 5.5137 8.25742 5.40906 8.25739ZM5.25183 7.65094L5.36316 7.63141C5.64255 7.58217 5.93069 7.62184 6.1864 7.74469C6.44216 7.86761 6.65283 8.06797 6.78894 8.31696L6.88171 8.4859L6.90417 8.52594L6.93738 8.49567L7.53894 7.96149L7.61023 7.89801H7.02332C6.84272 7.89788 6.66961 7.82646 6.54187 7.69879C6.414 7.57092 6.34167 7.3972 6.34167 7.21637V6.5611L5.25183 7.65094ZM9.03308 18.3062L8.99792 18.3052C8.08537 18.2957 7.18865 18.0629 6.3866 17.6275C5.58474 17.1921 4.90145 16.5671 4.39636 15.8072C3.72893 14.801 3.81596 13.5154 4.13171 12.3365L4.40515 11.317C4.48125 11.0329 4.51512 10.7388 4.50574 10.4449L4.50476 10.4107H3.22449C2.61723 10.4104 2.31357 9.67612 2.74304 9.24664L5.8241 6.16559C6.25357 5.73611 6.98785 6.03977 6.98816 6.64703V7.2525H7.5155C8.14227 7.25255 8.43698 8.02724 7.96863 8.44391L7.24304 9.08844L7.22156 9.10699L7.23523 9.13239L8.42664 11.3091C8.60872 11.6419 8.89034 11.9096 9.23132 12.0757C9.5723 12.2418 9.95671 12.2986 10.3309 12.2369L15.037 11.4605C15.2878 11.4191 15.4602 11.7051 15.3065 11.9078C14.8838 12.4657 14.6872 13.1514 14.5546 13.8316C14.471 14.2589 14.3374 14.669 14.161 15.0552C14.1327 15.0741 14.1063 15.096 14.0839 15.1216C13.3363 15.9694 12.2181 16.5112 10.9637 16.5113C8.69415 16.5113 6.88074 14.7453 6.88074 12.5992C6.88065 12.4947 6.83836 12.3948 6.76453 12.3209C6.6905 12.2468 6.58992 12.2047 6.48523 12.2047C6.38063 12.2047 6.2799 12.2469 6.20593 12.3209C6.13227 12.3948 6.09079 12.4948 6.0907 12.5992C6.0907 15.2099 8.28719 17.3004 10.9637 17.3004C11.5472 17.3013 12.1249 17.1983 12.6727 17.0005C11.8322 17.7037 10.8027 18.1462 9.71082 18.2691L9.67957 18.273V19.0953H10.577V19.7408H7.23914V19.0953H9.03308V18.3062Z" fill="#243B25" stroke="#243B25" stroke-width="0.0717726"/>
<path d="M16.8347 5.25641L15.7712 6.31989H17.0378L17.0261 6.27496L16.9187 5.86285C16.8697 5.6751 16.8616 5.47877 16.8953 5.28766L16.9148 5.17535L16.8347 5.25641ZM18.0417 4.81305C17.9371 4.81305 17.8365 4.85433 17.7625 4.92828C17.6884 5.00229 17.6472 5.10293 17.6472 5.20758C17.6472 5.31227 17.6884 5.41285 17.7625 5.48688C17.8365 5.5609 17.9371 5.60211 18.0417 5.60211C18.1464 5.60207 18.247 5.56087 18.321 5.48688C18.395 5.41286 18.4363 5.31221 18.4363 5.20758C18.4363 5.10293 18.395 5.00229 18.321 4.92828C18.247 4.85429 18.1464 4.81309 18.0417 4.81305ZM17.8845 4.2066L17.9958 4.18707C18.2752 4.13783 18.5634 4.1775 18.8191 4.30035C19.0748 4.42328 19.2855 4.62364 19.4216 4.87262L19.5144 5.04156L19.5369 5.0816L19.5701 5.05133L20.1716 4.51715L20.2429 4.45367H19.656C19.4754 4.45355 19.3023 4.38212 19.1746 4.25446C19.0467 4.12659 18.9744 3.95287 18.9744 3.77203V3.11676L17.8845 4.2066ZM21.6658 14.8619L21.6306 14.8609C20.7181 14.8514 19.8213 14.6185 19.0193 14.1832C18.2174 13.7478 17.5341 13.1227 17.0291 12.3629C16.3616 11.3566 16.4487 10.071 16.7644 8.89215L17.0378 7.87262C17.1139 7.58856 17.1478 7.29448 17.1384 7.00055L17.1375 6.96637H15.8572C15.2499 6.96606 14.9463 6.23178 15.3757 5.80231L18.4568 2.72125C18.8863 2.29178 19.6205 2.59544 19.6208 3.2027V3.80817H20.1482C20.775 3.80822 21.0697 4.58291 20.6013 4.99957L19.8757 5.6441L19.8542 5.66266L19.8679 5.68805L21.0593 7.86481C21.2414 8.19753 21.523 8.46531 21.864 8.63141C22.205 8.7975 22.5894 8.85428 22.9636 8.79254L27.6697 8.01617C27.9205 7.97481 28.0929 8.26071 27.9392 8.46344C27.5165 9.02131 27.3199 9.70702 27.1873 10.3873C27.1037 10.8146 26.9701 11.2247 26.7937 11.6109C26.7654 11.6298 26.739 11.6516 26.7166 11.6773C25.969 12.5251 24.8508 13.0669 23.5964 13.067C21.3268 13.067 19.5134 11.3009 19.5134 9.15485C19.5133 9.05036 19.4711 8.95046 19.3972 8.87653C19.3232 8.8025 19.2226 8.76031 19.1179 8.76031C19.0133 8.76039 18.9126 8.80256 18.8386 8.87653C18.765 8.95043 18.7235 9.05049 18.7234 9.15485C18.7234 11.7656 20.9199 13.856 23.5964 13.856C24.1799 13.8569 24.7576 13.754 25.3054 13.5562C24.4649 14.2594 23.4354 14.7018 22.3435 14.8248L22.3123 14.8287V15.6509H23.2097V16.2964H19.8718V15.6509H21.6658V14.8619Z" fill="#243B25" stroke="#243B25" stroke-width="0.0717726"/>
<path d="M13.3895 17.8882L12.326 18.9517H13.5927L13.5809 18.9068L13.4735 18.4947C13.4245 18.3069 13.4165 18.1106 13.4501 17.9195L13.4696 17.8072L13.3895 17.8882ZM14.5966 17.4449C14.4919 17.4449 14.3913 17.4862 14.3173 17.5601C14.2433 17.6341 14.2021 17.7348 14.202 17.8394C14.202 17.9441 14.2432 18.0447 14.3173 18.1187C14.3913 18.1927 14.4919 18.2339 14.5966 18.2339C14.7012 18.2339 14.8019 18.1927 14.8759 18.1187C14.9498 18.0447 14.9911 17.9441 14.9911 17.8394C14.9911 17.7348 14.9498 17.6341 14.8759 17.5601C14.8019 17.4861 14.7012 17.4449 14.5966 17.4449ZM14.4393 16.8384L14.5507 16.8189C14.83 16.7697 15.1182 16.8093 15.3739 16.9322C15.6297 17.0551 15.8403 17.2555 15.9764 17.5045L16.0692 17.6734L16.0917 17.7134L16.1249 17.6832L16.7264 17.149L16.7977 17.0855H16.2108C16.0302 17.0854 15.8571 17.014 15.7294 16.8863C15.6015 16.7584 15.5292 16.5847 15.5292 16.4039V15.7486L14.4393 16.8384ZM18.2206 27.4937L18.1854 27.4927C17.2729 27.4832 16.3762 27.2504 15.5741 26.815C14.7722 26.3796 14.089 25.7546 13.5839 24.9947C12.9164 23.9885 13.0035 22.7029 13.3192 21.524L13.5927 20.5045C13.6687 20.2204 13.7026 19.9263 13.6932 19.6324L13.6923 19.5982H12.412C11.8047 19.5979 11.5011 18.8636 11.9305 18.4341L15.0116 15.3531C15.4411 14.9236 16.1754 15.2273 16.1757 15.8345V16.44H16.703C17.3298 16.4401 17.6245 17.2147 17.1561 17.6314L16.4305 18.2759L16.4091 18.2945L16.4227 18.3199L17.6141 20.4966C17.7962 20.8294 18.0778 21.0971 18.4188 21.2632C18.7598 21.4293 19.1442 21.4861 19.5184 21.4244L24.2245 20.648C24.4753 20.6066 24.6477 20.8926 24.494 21.0953C24.0713 21.6532 23.8747 22.3389 23.7421 23.0191C23.6585 23.4464 23.5249 23.8565 23.3485 24.2427C23.3202 24.2616 23.2938 24.2835 23.2714 24.3091C22.5238 25.1569 21.4056 25.6987 20.1512 25.6988C17.8817 25.6988 16.0682 23.9328 16.0682 21.7867C16.0681 21.6822 16.0259 21.5823 15.952 21.5084C15.878 21.4343 15.7774 21.3922 15.6727 21.3922C15.5681 21.3922 15.4674 21.4344 15.3934 21.5084C15.3198 21.5823 15.2783 21.6823 15.2782 21.7867C15.2782 24.3974 17.4747 26.4879 20.1512 26.4879C20.7347 26.4888 21.3124 26.3858 21.8602 26.188C21.0197 26.8912 19.9902 27.3337 18.8983 27.4566L18.8671 27.4605V28.2828H19.7645V28.9283H16.4266V28.2828H18.2206V27.4937Z" fill="#243B25" stroke="#243B25" stroke-width="0.0717726"/>
</svg>
