<svg width="15" height="15" viewBox="0 0 15 15" fill="none" xmlns="http://www.w3.org/2000/svg">
<path d="M3.32422 4.10449L2.39746 5.03125H3.50098L3.49023 4.99219L3.39746 4.63281L3.37207 4.50879C3.35352 4.38402 3.355 4.25661 3.37695 4.13184L3.39355 4.03418L3.32422 4.10449ZM4.375 3.71875C4.28383 3.71875 4.1963 3.75487 4.13184 3.81934C4.06737 3.8838 4.03125 3.97133 4.03125 4.0625C4.03131 4.15359 4.06742 4.24125 4.13184 4.30566C4.19628 4.36999 4.28394 4.40625 4.375 4.40625C4.46609 4.40619 4.55375 4.37008 4.61816 4.30566C4.68258 4.24125 4.71869 4.15359 4.71875 4.0625C4.71875 3.97144 4.68249 3.88378 4.61816 3.81934C4.55375 3.75492 4.46609 3.71881 4.375 3.71875ZM4.30762 3.12109L4.2373 3.19043L4.33496 3.17383C4.57828 3.13094 4.82907 3.16546 5.05176 3.27246C5.27447 3.3795 5.45862 3.55369 5.57715 3.77051L5.65723 3.91797L5.67676 3.95215L5.70605 3.92578L6.22949 3.46094L6.29102 3.40625H5.78125C5.62388 3.40625 5.47266 3.34363 5.36133 3.23242C5.25003 3.12112 5.18756 2.96989 5.1875 2.8125V2.24121L4.30762 3.12109ZM7.53125 12.4688H7.5C6.70547 12.4604 5.92491 12.2579 5.22656 11.8789C4.52813 11.4998 3.93308 10.9548 3.49316 10.293C2.91195 9.41675 2.98774 8.29708 3.2627 7.27051L3.50098 6.38281C3.56719 6.13557 3.59604 5.87985 3.58789 5.62402L3.58691 5.59375H2.47266C1.9439 5.59355 1.67907 4.95412 2.05273 4.58008L4.73633 1.89648C5.11037 1.52282 5.7498 1.78765 5.75 2.31641V2.84375H6.20898C6.75484 2.84375 7.01146 3.51802 6.60352 3.88086L5.97168 4.44238L5.95312 4.45898L5.96582 4.48047L7.00293 6.37598C7.16148 6.6657 7.40622 6.8993 7.70312 7.04395C7.99997 7.18854 8.33437 7.23727 8.66016 7.18359L12.7588 6.50781C12.9497 6.47631 13.0888 6.66276 13.0312 6.82812L12.9941 6.89746C12.6259 7.38333 12.4544 7.98078 12.3389 8.57324C12.266 8.94579 12.149 9.30297 11.9951 9.63965C11.9711 9.65585 11.9488 9.67442 11.9297 9.69629C11.2787 10.4346 10.3043 10.9062 9.21191 10.9062C7.23562 10.9062 5.65637 9.36872 5.65625 7.5C5.65625 7.40894 5.61999 7.32128 5.55566 7.25684C5.49125 7.19242 5.40359 7.15631 5.3125 7.15625C5.22133 7.15625 5.1338 7.19237 5.06934 7.25684C5.00487 7.3213 4.96875 7.40883 4.96875 7.5C4.96887 9.77332 6.88123 11.5938 9.21191 11.5938C9.71567 11.5946 10.215 11.5072 10.6885 11.3379C9.95831 11.9455 9.06775 12.3309 8.12109 12.4375L8.09375 12.4404V13.1562H8.875V13.7188H5.96875V13.1562H7.53125V12.4688Z" fill="url(#paint0_linear_1194_5302)" stroke="#00681D" stroke-width="0.0625"/>
<defs>
<linearGradient id="paint0_linear_1194_5302" x1="2.03115" y1="7.65539" x2="13.114" y2="7.72335" gradientUnits="userSpaceOnUse">
<stop stop-color="#F9B420"/>
<stop offset="0.5" stop-color="#F7C02D"/>
<stop offset="1" stop-color="#98B130"/>
</linearGradient>
</defs>
</svg>
