<svg width="16" height="16" viewBox="0 0 16 16" fill="none" xmlns="http://www.w3.org/2000/svg">
<path d="M5.3335 3.7666C5.80158 3.7666 6.28007 3.98858 6.73877 4.37012C7.19659 4.751 7.62749 5.28423 7.99854 5.88965C8.74212 7.10302 9.23379 8.58525 9.23389 9.66602C9.23389 10.7003 8.8226 11.6925 8.09131 12.4238C7.35992 13.1552 6.36784 13.5664 5.3335 13.5664C4.29915 13.5664 3.30708 13.1552 2.57568 12.4238C1.84439 11.6925 1.43311 10.7003 1.43311 9.66602C1.4332 8.58525 1.92487 7.10302 2.66846 5.88965C3.0395 5.28423 3.47041 4.751 3.92822 4.37012C4.38692 3.98858 4.86542 3.7666 5.3335 3.7666ZM10.6665 2.43262C11.1346 2.43262 11.6131 2.65557 12.0718 3.03711C12.5296 3.41801 12.9605 3.95117 13.3315 4.55664C14.0752 5.77014 14.5669 7.25222 14.5669 8.33301C14.5671 8.92188 14.4338 9.50315 14.1772 10.0332C13.9207 10.5632 13.5473 11.0284 13.0854 11.3936C12.6234 11.7587 12.0843 12.0154 11.5093 12.1426C10.986 12.2583 10.4453 12.2626 9.92041 12.1602C10.4691 11.446 10.7686 10.5697 10.7671 9.66602C10.767 8.8073 10.4728 7.72493 10.0015 6.71582C9.54533 5.73936 8.91572 4.82079 8.2124 4.23047C8.56046 3.71877 8.95067 3.27611 9.35986 2.95801C9.78873 2.62462 10.232 2.43271 10.6665 2.43262Z" fill="url(#paint0_linear_1194_5312)" stroke="#00681D" stroke-width="0.2"/>
<defs>
<linearGradient id="paint0_linear_1194_5312" x1="1.55254" y1="7.93886" x2="14.7118" y2="8.0408" gradientUnits="userSpaceOnUse">
<stop stop-color="#F9B420"/>
<stop offset="0.5" stop-color="#F7C02D"/>
<stop offset="1" stop-color="#98B130"/>
</linearGradient>
</defs>
</svg>
