<svg xmlns="http://www.w3.org/2000/svg" xmlns:xlink="http://www.w3.org/1999/xlink" width="500" zoomAndPan="magnify" viewBox="0 0 375 374.999991" height="500" preserveAspectRatio="xMidYMid meet" version="1.0"><defs><clipPath id="961802bb5c"><path d="M 62.503906 53 L 312.253906 53 L 312.253906 337.546875 L 62.503906 337.546875 Z M 62.503906 53 " clip-rule="nonzero"/></clipPath></defs><g clip-path="url(#961802bb5c)"><path fill="#000000" d="M 254.59375 212.269531 C 260.453125 215.078125 266.402344 218.089844 272.148438 221.328125 L 272.171875 221.34375 L 272.25 221.386719 C 278.535156 224.929688 284.570312 228.746094 289.984375 232.851562 C 301.132812 241.316406 309.617188 251.046875 312.257812 262.316406 L 312.253906 262.320312 L 312.257812 262.347656 L 312.292969 262.511719 L 312.296875 262.523438 C 312.328125 262.660156 312.351562 262.804688 312.371094 262.949219 C 312.398438 263.191406 312.414062 263.40625 312.414062 263.613281 L 312.414062 331.875 C 312.414062 333.40625 311.792969 334.804688 310.796875 335.828125 C 309.773438 336.878906 308.359375 337.53125 306.800781 337.53125 L 68.1875 337.53125 C 66.632812 337.53125 65.21875 336.878906 64.195312 335.828125 C 63.199219 334.804688 62.578125 333.40625 62.578125 331.875 L 62.578125 263.613281 C 62.578125 263.410156 62.59375 263.191406 62.621094 262.945312 L 62.625 262.949219 C 62.636719 262.871094 62.648438 262.789062 62.664062 262.699219 C 62.679688 262.574219 62.703125 262.445312 62.734375 262.316406 C 65.449219 250.714844 74.355469 240.75 85.976562 232.117188 C 92.808594 227.046875 100.601562 222.421875 108.597656 218.195312 C 108.746094 218.105469 108.902344 218.023438 109.0625 217.953125 C 113.613281 215.558594 118.230469 213.292969 122.769531 211.148438 C 124.5 208.042969 127.148438 205.390625 130.640625 203.316406 C 128.398438 202.375 126.238281 201.285156 124.164062 200.042969 C 118.714844 196.785156 113.890625 192.503906 109.699219 187.210938 C 109.109375 186.53125 108.753906 185.648438 108.753906 184.683594 C 108.753906 182.554688 110.480469 180.824219 112.609375 180.824219 C 123.460938 180.824219 123.628906 160.675781 123.824219 137.769531 C 123.925781 125.574219 124.035156 112.664062 125.800781 101.195312 C 129.417969 77.664062 139.582031 59.789062 168.683594 63.542969 C 180.113281 54.601562 192.363281 51.785156 204.222656 53.726562 C 217.449219 55.890625 230.039062 64.023438 240.308594 76.171875 C 252.480469 90.566406 252.363281 116.378906 252.257812 139.464844 C 252.15625 161.550781 252.066406 180.828125 262.378906 180.828125 L 262.378906 180.832031 C 263.214844 180.832031 264.054688 181.101562 264.761719 181.65625 C 266.433594 182.96875 266.722656 185.390625 265.410156 187.066406 C 261.289062 192.304688 256.554688 196.554688 251.21875 199.8125 C 249.339844 200.957031 247.394531 201.976562 245.371094 202.875 C 249.679688 205.242188 252.792969 208.445312 254.59375 212.269531 Z M 254.59375 212.269531 " fill-opacity="1" fill-rule="evenodd"/></g><path fill="#00681d" d="M 159.367188 223.914062 L 174.574219 329.820312 L 202.214844 329.820312 L 217.332031 224.5 L 190.8125 239.8125 C 189.660156 240.492188 188.1875 240.550781 186.945312 239.835938 Z M 159.367188 223.914062 " fill-opacity="1" fill-rule="evenodd"/><path fill="#eaeef1" d="M 129.140625 215.535156 C 129.105469 215.621094 129.066406 215.703125 129.027344 215.785156 L 129.019531 215.800781 L 128.917969 216.039062 C 127.863281 218.613281 127.820312 221.6875 128.882812 225.105469 C 130.183594 229.308594 133.121094 233.96875 137.835938 238.847656 C 138.5625 239.601562 139.058594 240.519531 139.296875 241.507812 C 139.535156 242.492188 139.523438 243.519531 139.238281 244.503906 C 138.945312 245.53125 138.390625 246.425781 137.648438 247.128906 C 136.878906 247.855469 135.921875 248.351562 134.851562 248.554688 C 131.300781 249.234375 129.117188 250.617188 128.304688 252.695312 C 127.355469 255.140625 127.800781 258.777344 129.644531 263.605469 L 129.660156 263.636719 L 165.71875 322.328125 L 149.027344 206.078125 C 147.273438 206.191406 145.617188 206.382812 144.066406 206.652344 C 143.882812 206.699219 143.695312 206.734375 143.503906 206.753906 C 140.246094 207.371094 137.460938 208.328125 135.179688 209.574219 C 132.289062 211.152344 130.253906 213.179688 129.140625 215.535156 Z M 248.097656 216.640625 C 248.035156 216.503906 247.984375 216.359375 247.941406 216.214844 L 247.871094 216.039062 C 246.820312 213.472656 244.703125 211.261719 241.609375 209.574219 C 239.117188 208.210938 236.023438 207.195312 232.371094 206.59375 C 232.21875 206.578125 232.066406 206.554688 231.917969 206.523438 C 230.601562 206.320312 229.214844 206.167969 227.753906 206.078125 L 211.066406 322.328125 L 247.136719 263.621094 C 248.984375 258.789062 249.429688 255.144531 248.480469 252.699219 C 247.667969 250.617188 245.484375 249.238281 241.933594 248.558594 C 240.867188 248.351562 239.914062 247.859375 239.136719 247.128906 L 239.136719 247.132812 C 238.390625 246.429688 237.839844 245.53125 237.546875 244.503906 C 237.261719 243.515625 237.25 242.488281 237.488281 241.507812 C 237.726562 240.519531 238.222656 239.605469 238.949219 238.851562 C 243.667969 233.96875 246.601562 229.308594 247.902344 225.105469 C 248.882812 221.949219 248.925781 219.085938 248.097656 216.640625 Z M 248.097656 216.640625 " fill-opacity="1" fill-rule="evenodd"/><path fill="#eaeef1" d="M 112.234375 302.289062 C 113.738281 302.289062 115.113281 302.847656 116.160156 303.769531 L 116.207031 303.761719 C 117.011719 303.617188 117.78125 303.375 118.46875 303.007812 C 118.988281 302.734375 119.4375 302.394531 119.773438 301.988281 C 121.515625 299.875 120.9375 295.546875 119.25 290.710938 C 116.671875 283.335938 111.527344 275.371094 107.308594 270.917969 C 106.675781 270.25 106.027344 269.765625 105.363281 269.460938 C 104.746094 269.183594 104.0625 269.042969 103.3125 269.042969 L 101.988281 269.042969 C 101.238281 269.042969 100.554688 269.183594 99.9375 269.460938 C 99.269531 269.765625 98.621094 270.25 97.988281 270.917969 C 93.769531 275.371094 88.628906 283.335938 86.050781 290.714844 C 84.359375 295.546875 83.78125 299.875 85.527344 301.988281 C 85.859375 302.394531 86.308594 302.734375 86.828125 303.007812 C 87.328125 303.273438 87.875 303.476562 88.449219 303.621094 C 89.472656 302.785156 90.777344 302.285156 92.199219 302.285156 C 95.476562 302.285156 98.128906 304.941406 98.128906 308.21875 C 98.128906 311.492188 95.476562 314.148438 92.199219 314.148438 C 90.003906 314.148438 88.089844 312.957031 87.0625 311.183594 C 85.699219 310.890625 84.398438 310.445312 83.210938 309.816406 C 81.867188 309.101562 80.636719 308.136719 79.589844 306.867188 C 75.847656 302.328125 76.277344 295.367188 78.789062 288.179688 C 81.722656 279.785156 87.59375 270.703125 92.414062 265.617188 C 93.738281 264.21875 95.1875 263.160156 96.777344 262.441406 C 97.652344 262.042969 98.558594 261.75 99.496094 261.566406 C 99.628906 256.179688 100.207031 250.445312 101.222656 244.363281 C 102.027344 239.550781 103.105469 234.515625 104.457031 229.257812 C 99.546875 232.105469 94.839844 235.113281 90.558594 238.292969 C 80.375 245.855469 72.609375 254.347656 70.292969 263.828125 L 70.292969 329.816406 L 161.273438 329.816406 L 123.03125 267.574219 C 122.929688 267.410156 122.839844 267.238281 122.765625 267.066406 L 122.75 267.035156 L 122.75 267.027344 C 122.652344 266.835938 122.589844 266.699219 122.558594 266.613281 C 122.527344 266.535156 122.5 266.453125 122.476562 266.375 C 119.917969 259.6875 119.472656 254.203125 121.136719 249.925781 C 122.644531 246.054688 125.648438 243.359375 130.144531 241.84375 C 125.796875 236.871094 122.960938 231.972656 121.53125 227.367188 C 120.832031 225.109375 120.464844 222.914062 120.417969 220.804688 C 118.230469 221.882812 116.035156 222.984375 113.859375 224.117188 C 111.613281 231.789062 109.929688 238.960938 108.816406 245.628906 C 107.839844 251.453125 107.292969 256.886719 107.171875 261.921875 C 107.628906 262.070312 108.082031 262.242188 108.523438 262.445312 C 110.109375 263.164062 111.558594 264.222656 112.882812 265.617188 C 117.703125 270.707031 123.578125 279.789062 126.511719 288.183594 C 129.023438 295.371094 129.453125 302.332031 125.707031 306.871094 C 124.660156 308.140625 123.429688 309.105469 122.085938 309.820312 C 120.707031 310.550781 119.167969 311.035156 117.558594 311.324219 C 117.460938 311.339844 117.363281 311.355469 117.265625 311.363281 C 116.214844 313.039062 114.355469 314.152344 112.234375 314.152344 C 108.960938 314.152344 106.304688 311.496094 106.304688 308.222656 C 106.304688 304.945312 108.960938 302.289062 112.234375 302.289062 Z M 215.515625 329.820312 L 304.699219 329.820312 L 304.699219 263.828125 C 302.453125 254.625 295.078125 246.359375 285.34375 238.96875 C 282.980469 237.175781 280.472656 235.429688 277.863281 233.738281 C 279.695312 239.398438 281.160156 245.394531 282.179688 251.398438 C 283.589844 259.699219 284.152344 268.054688 283.664062 275.578125 C 286.273438 276.304688 288.609375 277.695312 290.472656 279.558594 C 293.277344 282.367188 295.019531 286.25 295.019531 290.535156 C 295.019531 294.820312 293.28125 298.699219 290.472656 301.507812 C 287.664062 304.316406 283.78125 306.054688 279.496094 306.054688 C 275.210938 306.054688 271.332031 304.316406 268.523438 301.507812 C 265.714844 298.699219 263.976562 294.820312 263.976562 290.535156 C 263.976562 286.25 265.714844 282.367188 268.523438 279.558594 C 270.53125 277.550781 273.089844 276.089844 275.953125 275.421875 C 276.449219 268.410156 275.925781 260.535156 274.585938 252.664062 C 273.082031 243.792969 270.550781 234.972656 267.296875 227.425781 C 263.703125 225.429688 260.019531 223.515625 256.332031 221.679688 C 256.214844 223.519531 255.859375 225.417969 255.257812 227.367188 C 253.828125 231.972656 250.992188 236.871094 246.644531 241.84375 C 251.136719 243.363281 254.140625 246.058594 255.648438 249.925781 C 257.316406 254.207031 256.867188 259.695312 254.304688 266.390625 C 254.261719 266.527344 254.210938 266.660156 254.152344 266.792969 L 254.136719 266.832031 C 254.09375 266.9375 254.046875 267.042969 253.992188 267.148438 L 253.894531 267.324219 C 253.855469 267.410156 253.804688 267.492188 253.753906 267.574219 Z M 215.515625 329.820312 " fill-opacity="1" fill-rule="evenodd"/><path fill="#243b25" d="M 285.019531 285.011719 C 283.605469 283.601562 281.652344 282.726562 279.496094 282.726562 C 277.339844 282.726562 275.390625 283.601562 273.976562 285.011719 C 272.566406 286.425781 271.691406 288.378906 271.691406 290.535156 C 271.691406 292.691406 272.566406 294.640625 273.976562 296.054688 C 275.390625 297.46875 277.339844 298.339844 279.496094 298.339844 C 281.652344 298.339844 283.605469 297.46875 285.019531 296.054688 C 286.429688 294.640625 287.304688 292.691406 287.304688 290.535156 C 287.304688 288.378906 286.429688 286.425781 285.019531 285.011719 Z M 285.019531 285.011719 " fill-opacity="1" fill-rule="evenodd"/><path fill="#a84532" d="M 207.101562 185.339844 C 202.015625 188.035156 196.074219 189.988281 189.285156 191.203125 C 188.800781 191.289062 188.320312 191.28125 187.867188 191.191406 C 180.320312 189.835938 173.824219 187.5625 168.382812 184.375 C 167.117188 186.847656 165.769531 189.539062 164.515625 192.042969 C 161.605469 197.863281 159.121094 202.828125 157.644531 203.566406 C 157.570312 203.601562 157.496094 203.636719 157.421875 203.667969 L 156.519531 204.109375 L 157.976562 214.246094 L 188.855469 232.074219 L 218.722656 214.832031 L 220.144531 204.910156 L 220.105469 204.890625 C 218.894531 204.3125 217.976562 203.867188 217.363281 203.566406 C 215.867188 202.824219 213.386719 197.867188 210.480469 192.054688 C 209.386719 189.863281 208.226562 187.542969 207.101562 185.339844 Z M 207.101562 185.339844 " fill-opacity="1" fill-rule="evenodd"/><path fill="#243b25" d="M 195.972656 96.9375 L 197.78125 97.90625 C 222.730469 111.21875 236.171875 118.390625 227.773438 158.238281 L 227.753906 158.328125 L 227.757812 158.328125 C 225.621094 167.375 221.28125 174.671875 214.730469 180.210938 C 214.355469 180.53125 213.972656 180.839844 213.585938 181.144531 C 214.820312 183.5625 216.125 186.175781 217.347656 188.617188 C 219.628906 193.175781 219.964844 196.269531 220.769531 196.664062 C 221.886719 197.21875 222.769531 197.652344 223.417969 197.960938 L 224.542969 198.488281 C 225.050781 198.355469 225.585938 198.292969 226.136719 198.308594 C 228.425781 198.378906 230.597656 198.566406 232.644531 198.867188 C 237.980469 197.789062 242.835938 195.910156 247.210938 193.242188 C 250.070312 191.496094 252.738281 189.398438 255.210938 186.949219 C 244.382812 181.335938 244.46875 161.574219 244.570312 139.433594 C 244.671875 117.691406 244.78125 93.382812 234.433594 81.140625 C 225.320312 70.363281 214.339844 63.175781 202.984375 61.316406 C 192.8125 59.652344 182.203125 62.304688 172.25 70.554688 C 171.371094 71.28125 170.265625 71.554688 169.222656 71.398438 C 144.910156 67.660156 136.457031 82.59375 133.421875 102.335938 C 131.710938 113.457031 131.605469 125.988281 131.503906 137.832031 C 131.3125 160.722656 131.132812 181.273438 119.800781 186.976562 C 122.363281 189.507812 125.132812 191.664062 128.109375 193.445312 C 132.605469 196.136719 137.617188 197.996094 143.140625 199.019531 C 145.476562 198.628906 147.984375 198.390625 150.648438 198.304688 L 150.847656 198.304688 L 151.902344 197.800781 L 152.09375 197.703125 C 152.746094 197.386719 153.390625 197.074219 154.019531 196.765625 L 154.207031 196.664062 C 154.988281 196.273438 155.367188 193.167969 157.644531 188.605469 C 159.085938 185.726562 160.644531 182.609375 162.070312 179.855469 C 155.800781 174.398438 151.609375 167.289062 149.503906 158.523438 C 138.917969 128.535156 147.824219 120.386719 157.25 111.761719 C 163.238281 106.28125 169.492188 100.558594 168.425781 85.621094 C 168.277344 83.5 169.875 81.65625 171.996094 81.507812 C 173.988281 81.367188 175.738281 82.773438 176.0625 84.703125 C 177.996094 93.125 181.191406 98.84375 185.652344 103.390625 C 187.789062 105.570312 190.242188 107.523438 193.007812 109.398438 C 191.851562 106.539062 190.953125 103.796875 190.316406 101.171875 C 189.816406 99.109375 191.085938 97.03125 193.148438 96.53125 C 194.148438 96.292969 195.148438 96.464844 195.972656 96.9375 Z M 195.972656 96.9375 " fill-opacity="1" fill-rule="evenodd"/><path fill="#a84532" d="M 220.261719 156.582031 C 226.644531 126.1875 218.113281 117.917969 200.917969 108.335938 C 202.167969 111.183594 203.683594 114.167969 205.46875 117.269531 C 206.191406 118.410156 206.289062 119.898438 205.597656 121.167969 C 204.582031 123.03125 202.25 123.71875 200.386719 122.703125 C 192.207031 118.234375 185.503906 114.222656 180.171875 108.785156 C 178 106.570312 176.078125 104.152344 174.410156 101.410156 C 171.871094 108.785156 167.089844 113.167969 162.433594 117.425781 C 154.933594 124.285156 147.851562 130.769531 156.800781 156.066406 C 156.863281 156.230469 156.917969 156.402344 156.957031 156.578125 C 158.703125 163.972656 162.203125 169.894531 167.453125 174.335938 C 172.683594 178.765625 179.738281 181.816406 188.605469 183.484375 C 197.476562 181.8125 204.527344 178.761719 209.757812 174.335938 C 215.011719 169.894531 218.511719 163.972656 220.257812 156.578125 Z M 220.261719 156.582031 " fill-opacity="1" fill-rule="evenodd"/></svg>