<svg width="18" height="19" viewBox="0 0 18 19" fill="none" xmlns="http://www.w3.org/2000/svg">
<path d="M6.10602 6.7442V5.29739C6.10602 4.91368 6.25845 4.54568 6.52978 4.27435C6.80111 4.00302 7.16911 3.85059 7.55283 3.85059H10.4464C10.8302 3.85059 11.1982 4.00302 11.4695 4.27435C11.7408 4.54568 11.8933 4.91368 11.8933 5.29739V6.7442M7.55283 11.0846H10.4464M8.99964 9.63782V12.5314M3.2124 8.19101C3.2124 7.80729 3.36483 7.43929 3.63616 7.16796C3.90749 6.89663 4.27549 6.7442 4.65921 6.7442H13.3401C13.7238 6.7442 14.0918 6.89663 14.3631 7.16796C14.6344 7.43929 14.7869 7.80729 14.7869 8.19101V13.9782C14.7869 14.362 14.6344 14.73 14.3631 15.0013C14.0918 15.2726 13.7238 15.4251 13.3401 15.4251H4.65921C4.27549 15.4251 3.90749 15.2726 3.63616 15.0013C3.36483 14.73 3.2124 14.362 3.2124 13.9782V8.19101Z" stroke="#243B25" stroke-width="1.15254" stroke-linecap="round" stroke-linejoin="round"/>
</svg>
