<svg width="18" height="18" viewBox="0 0 18 18" fill="none" xmlns="http://www.w3.org/2000/svg">
<path d="M6.16634 4.04167H4.74967C4.37395 4.04167 4.01362 4.19092 3.74794 4.4566C3.48226 4.72228 3.33301 5.08261 3.33301 5.45833V13.9583C3.33301 14.3341 3.48226 14.6944 3.74794 14.9601C4.01362 15.2257 4.37395 15.375 4.74967 15.375H8.78505M6.16634 4.04167C6.16634 3.66594 6.3156 3.30561 6.58127 3.03993C6.84695 2.77426 7.20728 2.625 7.58301 2.625H8.99968C9.3754 2.625 9.73573 2.77426 10.0014 3.03993C10.2671 3.30561 10.4163 3.66594 10.4163 4.04167M6.16634 4.04167C6.16634 4.41739 6.3156 4.77772 6.58127 5.0434C6.84695 5.30908 7.20728 5.45833 7.58301 5.45833H8.99968C9.3754 5.45833 9.73573 5.30908 10.0014 5.0434C10.2671 4.77772 10.4163 4.41739 10.4163 4.04167M13.2497 10.4167V13.25H16.083M13.2497 10.4167C14.0011 10.4167 14.7218 10.7152 15.2531 11.2465C15.7845 11.7779 16.083 12.4986 16.083 13.25M13.2497 10.4167C12.4982 10.4167 11.7776 10.7152 11.2462 11.2465C10.7149 11.7779 10.4163 12.4986 10.4163 13.25C10.4163 14.0014 10.7149 14.7221 11.2462 15.2535C11.7776 15.7848 12.4982 16.0833 13.2497 16.0833C14.0011 16.0833 14.7218 15.7848 15.2531 15.2535C15.7845 14.7221 16.083 14.0014 16.083 13.25M13.2497 8.29167V5.45833C13.2497 5.08261 13.1004 4.72228 12.8347 4.4566C12.5691 4.19092 12.2087 4.04167 11.833 4.04167H10.4163M6.16634 8.29167H8.99968M6.16634 11.125H8.29134" stroke="#243B25" stroke-width="1.15254" stroke-linecap="round" stroke-linejoin="round"/>
</svg>
