<svg width="15" height="16" viewBox="0 0 15 16" fill="none" xmlns="http://www.w3.org/2000/svg">
<path d="M7.27686 6.02051C7.66785 6.01926 8.07302 6.09227 8.4917 6.25293C8.91293 6.41468 9.41774 6.91445 9.8501 7.63477C10.2803 8.3516 10.6366 9.26122 10.8364 10.1787C11.0364 11.0972 11.0768 12.0179 10.9067 12.752C10.737 13.4842 10.3832 14.0068 9.77783 14.2686C8.79671 14.6926 7.49358 14.8745 6.24854 14.8525C5.00279 14.8306 3.8243 14.6017 3.11279 14.2725L3.09717 14.2646C2.49617 13.9778 2.20307 13.3217 2.20459 12.376C2.20612 11.4257 2.53339 10.2549 3.10693 9.18457C3.68046 8.11448 4.49299 7.15434 5.42432 6.58496C6.00603 6.22936 6.62546 6.02268 7.27686 6.02051ZM8.00049 4.89355C8.02232 4.89388 8.04454 4.89512 8.06689 4.89648C8.24761 4.90726 8.44745 4.95013 8.63818 5.02441C8.82856 5.09855 9.00571 5.20427 9.14697 5.31543C9.2901 5.42807 9.38797 5.54042 9.4292 5.62695C9.45153 5.67392 9.45983 5.70565 9.46143 5.72949C9.46285 5.7515 9.4594 5.77349 9.44678 5.80273C9.43644 5.8267 9.40949 5.85966 9.36279 5.90332C9.17179 5.75564 8.97134 5.63609 8.75928 5.55469C8.28598 5.37302 7.81686 5.28638 7.35986 5.2793C7.3681 5.24952 7.378 5.22281 7.38818 5.19922C7.44183 5.07498 7.51432 5.00795 7.62158 4.95801C7.71557 4.91427 7.84635 4.89127 8.00049 4.89355ZM5.78271 4.77832C6.08297 4.77435 6.38601 4.82931 6.68994 4.93359C6.64985 5.03303 6.61976 5.13909 6.60107 5.25195C5.98503 5.02427 5.40401 5.06312 4.81104 5.38867L4.63232 5.08887C4.95673 4.9111 5.28939 4.81277 5.62549 4.78613L5.78271 4.77832ZM12.313 3.41699C12.3236 3.43433 12.3352 3.45105 12.3452 3.46875C12.506 3.75529 12.538 4.02201 12.4917 4.18359C12.4675 4.26764 12.4322 4.33088 12.3726 4.37988C12.3112 4.43028 12.2151 4.47362 12.0571 4.5C11.4472 4.60178 10.7474 4.79787 10.1792 4.97559C10.8415 4.40786 11.5724 3.92708 12.313 3.41699ZM10.6587 1.28906C10.6764 1.28899 10.6948 1.28944 10.7134 1.29004C11.0102 1.29966 11.3801 1.42543 11.6802 1.61719C11.9821 1.81022 12.1871 2.05998 12.2388 2.23926C12.2664 2.33489 12.2699 2.40423 12.2417 2.47168C12.2118 2.54297 12.1399 2.62866 11.98 2.73926C11.1461 3.31591 10.2636 3.88456 9.46533 4.61328C9.29402 4.50007 9.10543 4.40437 8.90967 4.32812C8.85831 4.30813 8.8051 4.29176 8.75244 4.27441C9.05341 3.28446 9.63415 2.40443 10.1362 1.53906C10.1876 1.45056 10.2537 1.39083 10.3354 1.35156C10.4189 1.31154 10.5248 1.28984 10.6587 1.28906ZM5.81201 3.05469C6.22077 3.33166 6.63122 3.61503 6.97314 3.98535C7.06811 4.08818 7.15471 4.20014 7.23584 4.31836C7.13384 4.37438 7.03943 4.44299 6.95752 4.52539C6.88478 4.41882 6.80652 4.31626 6.71826 4.2207C6.41444 3.89181 6.02027 3.61674 5.6167 3.34277L5.81201 3.05469ZM8.63428 1.31152C8.77369 1.31407 8.97976 1.3839 9.24072 1.58398C8.79402 2.32889 8.28539 3.16962 8.0083 4.14062C7.99559 4.14047 7.98292 4.14053 7.97021 4.14062C7.74119 3.30498 7.7838 2.39376 8.02686 1.84473C8.19969 1.45444 8.40034 1.30742 8.63428 1.31152Z" fill="url(#paint0_linear_1194_5307)" stroke="#00681D" stroke-width="0.2"/>
<defs>
<linearGradient id="paint0_linear_1194_5307" x1="2.27758" y1="7.99784" x2="12.6472" y2="8.04996" gradientUnits="userSpaceOnUse">
<stop stop-color="#F9B420"/>
<stop offset="0.5" stop-color="#F7C02D"/>
<stop offset="1" stop-color="#98B130"/>
</linearGradient>
</defs>
</svg>
