<svg xmlns="http://www.w3.org/2000/svg" xmlns:xlink="http://www.w3.org/1999/xlink" width="500" zoomAndPan="magnify" viewBox="0 0 375 374.999991" height="500" preserveAspectRatio="xMidYMid meet" version="1.0"><defs><clipPath id="dc1ae9b0aa"><path d="M 94 194 L 317.621094 194 L 317.621094 313.015625 L 94 313.015625 Z M 94 194 " clip-rule="nonzero"/></clipPath><clipPath id="3cddd7d323"><path d="M 57.371094 61.765625 L 279 61.765625 L 279 288 L 57.371094 288 Z M 57.371094 61.765625 " clip-rule="nonzero"/></clipPath></defs><g clip-path="url(#dc1ae9b0aa)"><path fill="#243b25" d="M 308.535156 313.242188 L 94.324219 293.992188 L 103.304688 194.046875 L 317.515625 213.296875 L 308.535156 313.242188 " fill-opacity="1" fill-rule="nonzero"/></g><path fill="#aac641" d="M 298.675781 302.84375 L 105.878906 285.515625 L 113.164062 204.445312 L 305.960938 221.765625 L 298.675781 302.84375 " fill-opacity="1" fill-rule="nonzero"/><path fill="#243b25" d="M 111.308594 225.089844 C 112.332031 225.367188 113.394531 225.566406 114.488281 225.664062 C 124.515625 226.566406 133.375 219.167969 134.277344 209.140625 C 134.363281 208.195312 134.375 207.261719 134.316406 206.34375 L 113.164062 204.445312 L 111.308594 225.089844 " fill-opacity="1" fill-rule="nonzero"/><path fill="#243b25" d="M 107.734375 264.871094 C 108.792969 264.78125 109.871094 264.773438 110.964844 264.871094 C 120.992188 265.773438 128.390625 274.636719 127.488281 284.667969 C 127.40625 285.609375 127.253906 286.527344 127.035156 287.417969 L 105.878906 285.515625 L 107.734375 264.871094 " fill-opacity="1" fill-rule="nonzero"/><path fill="#243b25" d="M 300.53125 282.199219 C 299.503906 281.921875 298.449219 281.71875 297.351562 281.625 C 287.324219 280.722656 278.464844 288.121094 277.566406 298.152344 C 277.476562 299.09375 277.46875 300.027344 277.527344 300.945312 L 298.675781 302.84375 L 300.53125 282.199219 " fill-opacity="1" fill-rule="nonzero"/><path fill="#243b25" d="M 304.109375 242.414062 C 303.050781 242.507812 301.96875 242.511719 300.878906 242.410156 C 290.851562 241.511719 283.453125 232.652344 284.351562 222.625 C 284.4375 221.679688 284.589844 220.757812 284.808594 219.867188 L 305.960938 221.765625 L 304.109375 242.414062 " fill-opacity="1" fill-rule="nonzero"/><path fill="#243b25" d="M 230.234375 255.828125 C 228.910156 270.597656 215.859375 281.492188 201.09375 280.171875 C 186.324219 278.84375 175.425781 265.792969 176.753906 251.023438 C 178.082031 236.253906 191.128906 225.355469 205.898438 226.679688 C 220.667969 228.011719 231.566406 241.0625 230.234375 255.828125 " fill-opacity="1" fill-rule="nonzero"/><path fill="#243b25" d="M 160.605469 249.570312 C 159.878906 257.621094 152.769531 263.5625 144.71875 262.835938 C 136.667969 262.117188 130.730469 255 131.453125 246.949219 C 132.179688 238.902344 139.289062 232.960938 147.335938 233.6875 C 155.390625 234.410156 161.332031 241.519531 160.605469 249.570312 " fill-opacity="1" fill-rule="nonzero"/><path fill="#243b25" d="M 277.5625 260.078125 C 276.839844 268.128906 269.726562 274.066406 261.675781 273.34375 C 253.625 272.625 247.6875 265.507812 248.40625 257.460938 C 249.132812 249.410156 256.246094 243.472656 264.296875 244.195312 C 272.34375 244.917969 278.28125 252.03125 277.5625 260.078125 " fill-opacity="1" fill-rule="nonzero"/><path fill="#aac641" d="M 214.273438 260.972656 C 214.570312 257.679688 213.386719 254.976562 210.722656 252.859375 C 209.886719 252.191406 207.714844 251.011719 204.203125 249.332031 C 201.996094 248.285156 200.957031 247.109375 201.066406 245.792969 C 201.253906 243.769531 202.742188 242.878906 205.527344 243.128906 C 207.21875 243.28125 208.902344 243.710938 210.589844 244.414062 C 212.015625 245.011719 212.738281 245.34375 212.773438 245.421875 C 212.976562 245.34375 213.144531 245.179688 213.292969 244.914062 L 215.0625 241.554688 C 215.320312 241.070312 215.449219 240.804688 215.453125 240.761719 C 215.519531 240.042969 214.4375 239.246094 212.21875 238.363281 C 210.90625 237.84375 209.628906 237.457031 208.386719 237.179688 L 208.679688 233.875 L 203.097656 233.375 L 202.789062 236.8125 C 200.765625 237.0625 198.984375 237.78125 197.464844 238.988281 C 195.214844 240.765625 193.960938 243.132812 193.695312 246.089844 C 193.484375 248.453125 194.0625 250.515625 195.445312 252.253906 C 196.207031 253.21875 198.484375 254.65625 202.273438 256.574219 C 205.292969 258.078125 206.734375 259.550781 206.605469 260.988281 C 206.417969 263.101562 205.03125 264.039062 202.453125 263.808594 C 200.851562 263.664062 198.925781 263.023438 196.6875 261.886719 C 194.441406 260.75 193.429688 260.1875 193.640625 260.207031 C 193.429688 260.1875 193.246094 260.363281 193.082031 260.730469 L 191.367188 264.222656 C 191.152344 264.828125 191.027344 265.125 190.988281 265.128906 C 191.03125 265.953125 192.328125 266.9375 194.914062 268.082031 C 196.617188 268.84375 198.253906 269.402344 199.828125 269.765625 L 199.53125 273.085938 L 205.109375 273.585938 L 205.417969 270.171875 C 207.445312 269.941406 209.195312 269.230469 210.671875 268.027344 C 212.808594 266.289062 214.007812 263.929688 214.273438 260.972656 " fill-opacity="1" fill-rule="nonzero"/><path fill="#243b25" d="M 310.378906 211.339844 L 111.738281 293.804688 L 73.265625 201.125 L 271.902344 118.664062 L 310.378906 211.339844 " fill-opacity="1" fill-rule="nonzero"/><path fill="#aac641" d="M 296.816406 206.710938 L 118.039062 280.933594 L 86.824219 205.75 L 265.609375 131.53125 L 296.816406 206.710938 " fill-opacity="1" fill-rule="nonzero"/><path fill="#243b25" d="M 94.773438 224.894531 C 95.808594 224.667969 96.839844 224.347656 97.855469 223.929688 C 107.152344 220.070312 111.5625 209.402344 107.703125 200.105469 C 107.339844 199.230469 106.917969 198.394531 106.441406 197.609375 L 86.824219 205.75 L 94.773438 224.894531 " fill-opacity="1" fill-rule="nonzero"/><path fill="#243b25" d="M 110.085938 261.792969 C 110.980469 261.214844 111.933594 260.710938 112.949219 260.292969 C 122.25 256.429688 132.917969 260.839844 136.777344 270.132812 C 137.140625 271.011719 137.433594 271.898438 137.648438 272.789062 L 118.039062 280.933594 L 110.085938 261.792969 " fill-opacity="1" fill-rule="nonzero"/><path fill="#243b25" d="M 288.871094 187.570312 C 287.832031 187.796875 286.800781 188.117188 285.789062 188.539062 C 276.488281 192.398438 272.078125 203.066406 275.941406 212.367188 C 276.300781 213.242188 276.722656 214.070312 277.199219 214.855469 L 296.816406 206.710938 L 288.871094 187.570312 " fill-opacity="1" fill-rule="nonzero"/><path fill="#243b25" d="M 273.554688 150.675781 C 272.660156 151.25 271.710938 151.753906 270.695312 152.179688 C 261.394531 156.039062 250.726562 151.628906 246.867188 142.332031 C 246.5 141.457031 246.214844 140.566406 245.992188 139.675781 L 265.609375 131.53125 L 273.554688 150.675781 " fill-opacity="1" fill-rule="nonzero"/><path fill="#243b25" d="M 214.371094 196.875 C 220.054688 210.566406 213.5625 226.28125 199.867188 231.964844 C 186.175781 237.652344 170.460938 231.15625 164.773438 217.460938 C 159.09375 203.765625 165.582031 188.054688 179.277344 182.367188 C 192.972656 176.683594 208.683594 183.179688 214.371094 196.875 " fill-opacity="1" fill-rule="nonzero"/><path fill="#243b25" d="M 149.800781 223.675781 C 152.898438 231.140625 149.359375 239.707031 141.894531 242.808594 C 134.429688 245.90625 125.867188 242.363281 122.769531 234.902344 C 119.671875 227.433594 123.210938 218.871094 130.671875 215.773438 C 138.140625 212.675781 146.703125 216.214844 149.800781 223.675781 " fill-opacity="1" fill-rule="nonzero"/><path fill="#243b25" d="M 258.253906 178.65625 C 261.351562 186.121094 257.8125 194.683594 250.347656 197.78125 C 242.882812 200.878906 234.320312 197.339844 231.222656 189.878906 C 228.121094 182.414062 231.664062 173.847656 239.125 170.75 C 246.589844 167.652344 255.15625 171.191406 258.253906 178.65625 " fill-opacity="1" fill-rule="nonzero"/><path fill="#aac641" d="M 202.625 208.84375 C 201.355469 205.789062 199.050781 203.949219 195.710938 203.3125 C 194.660156 203.105469 192.1875 203.070312 188.296875 203.214844 C 185.859375 203.3125 184.386719 202.75 183.882812 201.539062 C 183.097656 199.65625 184 198.179688 186.589844 197.105469 C 188.15625 196.457031 189.851562 196.050781 191.664062 195.894531 C 193.207031 195.761719 194.003906 195.71875 194.070312 195.769531 C 194.210938 195.609375 194.289062 195.382812 194.289062 195.078125 L 194.300781 191.285156 C 194.300781 190.730469 194.296875 190.441406 194.28125 190.398438 C 194.003906 189.730469 192.675781 189.527344 190.296875 189.777344 C 188.894531 189.925781 187.585938 190.175781 186.351562 190.511719 L 185.082031 187.449219 L 179.90625 189.597656 L 181.226562 192.785156 C 179.554688 193.949219 178.3125 195.40625 177.527344 197.179688 C 176.363281 199.796875 176.347656 202.480469 177.484375 205.226562 C 178.398438 207.417969 179.871094 208.96875 181.898438 209.871094 C 183.023438 210.367188 185.707031 210.585938 189.953125 210.523438 C 193.324219 210.453125 195.289062 211.089844 195.839844 212.417969 C 196.65625 214.378906 195.863281 215.855469 193.476562 216.847656 C 191.984375 217.464844 189.984375 217.789062 187.472656 217.820312 C 184.957031 217.855469 183.800781 217.828125 183.996094 217.75 C 183.800781 217.828125 183.71875 218.070312 183.746094 218.472656 L 183.847656 222.363281 C 183.9375 223 183.96875 223.320312 183.929688 223.339844 C 184.355469 224.050781 185.960938 224.320312 188.785156 224.132812 C 190.644531 224.011719 192.355469 223.75 193.914062 223.339844 L 195.191406 226.417969 L 200.367188 224.269531 L 199.054688 221.105469 C 200.738281 219.960938 201.964844 218.519531 202.710938 216.769531 C 203.792969 214.234375 203.765625 211.585938 202.625 208.84375 " fill-opacity="1" fill-rule="nonzero"/><g clip-path="url(#3cddd7d323)"><path fill="#243b25" d="M 278.023438 130.640625 L 130.371094 287.023438 L 57.410156 218.132812 L 205.058594 61.75 L 278.023438 130.640625 " fill-opacity="1" fill-rule="nonzero"/></g><path fill="#aac641" d="M 263.753906 131.949219 L 130.863281 272.703125 L 71.675781 216.820312 L 204.566406 76.066406 L 263.753906 131.949219 " fill-opacity="1" fill-rule="nonzero"/><path fill="#243b25" d="M 86.746094 231.046875 C 87.601562 230.417969 88.410156 229.707031 89.164062 228.90625 C 96.078125 221.589844 95.746094 210.046875 88.425781 203.136719 C 87.734375 202.488281 87.011719 201.898438 86.253906 201.375 L 71.675781 216.820312 L 86.746094 231.046875 " fill-opacity="1" fill-rule="nonzero"/><path fill="#243b25" d="M 115.789062 258.472656 C 116.375 257.582031 117.039062 256.734375 117.789062 255.9375 C 124.703125 248.613281 136.242188 248.285156 143.5625 255.191406 C 144.253906 255.84375 144.878906 256.539062 145.441406 257.261719 L 130.863281 272.703125 L 115.789062 258.472656 " fill-opacity="1" fill-rule="nonzero"/><path fill="#243b25" d="M 248.683594 117.71875 C 247.832031 118.351562 247.019531 119.0625 246.265625 119.863281 C 239.351562 127.183594 239.683594 138.722656 247.003906 145.636719 C 247.695312 146.285156 248.417969 146.871094 249.175781 147.394531 L 263.753906 131.949219 L 248.683594 117.71875 " fill-opacity="1" fill-rule="nonzero"/><path fill="#243b25" d="M 219.640625 90.296875 C 219.058594 91.183594 218.394531 92.039062 217.644531 92.835938 C 210.726562 100.15625 199.1875 100.488281 191.867188 93.578125 C 191.179688 92.925781 190.554688 92.234375 189.988281 91.511719 L 204.566406 76.066406 L 219.640625 90.296875 " fill-opacity="1" fill-rule="nonzero"/><path fill="#243b25" d="M 184.476562 156.632812 C 195.261719 166.8125 195.746094 183.804688 185.570312 194.585938 C 175.386719 205.367188 158.394531 205.859375 147.613281 195.675781 C 136.832031 185.496094 136.339844 168.507812 146.523438 157.722656 C 156.703125 146.941406 173.695312 146.453125 184.476562 156.632812 " fill-opacity="1" fill-rule="nonzero"/><path fill="#243b25" d="M 136.480469 207.464844 C 142.355469 213.015625 142.625 222.277344 137.070312 228.15625 C 131.523438 234.03125 122.261719 234.296875 116.386719 228.746094 C 110.507812 223.199219 110.242188 213.9375 115.792969 208.0625 C 121.339844 202.183594 130.601562 201.917969 136.480469 207.464844 " fill-opacity="1" fill-rule="nonzero"/><path fill="#243b25" d="M 217.09375 122.085938 C 222.972656 127.632812 223.238281 136.894531 217.6875 142.773438 C 212.140625 148.652344 202.878906 148.914062 197 143.367188 C 191.125 137.820312 190.859375 128.558594 196.410156 122.675781 C 201.957031 116.800781 211.21875 116.535156 217.09375 122.085938 " fill-opacity="1" fill-rule="nonzero"/><path fill="#aac641" d="M 178.644531 172.355469 C 176.238281 170.085938 173.382812 169.34375 170.074219 170.128906 C 169.027344 170.371094 166.757812 171.347656 163.265625 173.070312 C 161.078125 174.152344 159.503906 174.242188 158.546875 173.34375 C 157.066406 171.941406 157.289062 170.226562 159.210938 168.191406 C 160.375 166.957031 161.753906 165.894531 163.351562 165.007812 C 164.703125 164.257812 165.414062 163.894531 165.496094 163.914062 C 165.558594 163.710938 165.535156 163.472656 165.417969 163.191406 L 163.875 159.726562 C 163.648438 159.222656 163.527344 158.957031 163.492188 158.925781 C 162.96875 158.433594 161.671875 158.785156 159.609375 159.984375 C 158.382812 160.691406 157.292969 161.460938 156.304688 162.265625 L 153.894531 159.988281 L 150.046875 164.066406 L 152.554688 166.4375 C 151.5 168.179688 150.960938 170.019531 150.972656 171.957031 C 150.976562 174.824219 152.0625 177.277344 154.222656 179.316406 C 155.945312 180.949219 157.921875 181.761719 160.144531 181.757812 C 161.371094 181.753906 163.910156 180.855469 167.761719 179.0625 C 170.808594 177.621094 172.859375 177.402344 173.910156 178.390625 C 175.453125 179.847656 175.335938 181.515625 173.558594 183.398438 C 172.453125 184.566406 170.757812 185.683594 168.480469 186.742188 C 166.195312 187.796875 165.128906 188.246094 165.277344 188.09375 C 165.128906 188.246094 165.152344 188.5 165.34375 188.855469 L 167.019531 192.367188 C 167.363281 192.90625 167.523438 193.191406 167.5 193.222656 C 168.171875 193.699219 169.75 193.289062 172.253906 191.96875 C 173.898438 191.097656 175.355469 190.15625 176.613281 189.148438 L 179.035156 191.433594 L 182.882812 187.359375 L 180.390625 185.003906 C 181.460938 183.273438 181.992188 181.457031 181.953125 179.554688 C 181.910156 176.796875 180.804688 174.398438 178.644531 172.355469 " fill-opacity="1" fill-rule="nonzero"/></svg>