<svg width="32" height="33" viewBox="0 0 32 33" fill="none" xmlns="http://www.w3.org/2000/svg">
<path d="M6 2.5H26C28.216 2.5 30 4.284 30 6.5V26.5C30 28.716 28.216 30.5 26 30.5H6C3.784 30.5 2 28.716 2 26.5V6.5C2 4.284 3.784 2.5 6 2.5Z" stroke="#00681D" stroke-width="1.53125" stroke-linecap="round" stroke-linejoin="round"/>
<path d="M8 8.5H10" stroke="#00681D" stroke-width="1.53125" stroke-linecap="round" stroke-linejoin="round"/>
<path d="M12 10.5C11.4696 10.5 10.9609 10.2893 10.5858 9.91421C10.2107 9.53914 10 9.03043 10 8.5C10 7.96957 10.2107 7.46086 10.5858 7.08579C10.9609 6.71071 11.4696 6.5 12 6.5C12.2626 6.5 12.5227 6.55173 12.7654 6.65224C13.008 6.75275 13.2285 6.90007 13.4142 7.08579C13.5999 7.2715 13.7472 7.49198 13.8478 7.73463C13.9483 7.97728 14 8.23736 14 8.5C14 8.76264 13.9483 9.02272 13.8478 9.26537C13.7472 9.50802 13.5999 9.7285 13.4142 9.91421C13.2285 10.0999 13.008 10.2472 12.7654 10.3478C12.5227 10.4483 12.2626 10.5 12 10.5Z" stroke="#00681D" stroke-width="1.53125" stroke-linecap="round" stroke-linejoin="round"/>
<path d="M14 8.50003L24 8.5" stroke="#00681D" stroke-width="1.53125" stroke-linecap="round" stroke-linejoin="round"/>
<path d="M24 16.5H22" stroke="#00681D" stroke-width="1.53125" stroke-linecap="round" stroke-linejoin="round"/>
<path d="M20 18.5C20.5304 18.5 21.0391 18.2893 21.4142 17.9142C21.7893 17.5391 22 17.0304 22 16.5C22 15.9696 21.7893 15.4609 21.4142 15.0858C21.0391 14.7107 20.5304 14.5 20 14.5C19.4696 14.5 18.9609 14.7107 18.5858 15.0858C18.2107 15.4609 18 15.9696 18 16.5C18 17.0304 18.2107 17.5391 18.5858 17.9142C18.9609 18.2893 19.4696 18.5 20 18.5Z" stroke="#00681D" stroke-width="1.53125" stroke-linecap="round" stroke-linejoin="round"/>
<path d="M18 16.5L8 16.5" stroke="#00681D" stroke-width="1.53125" stroke-linecap="round" stroke-linejoin="round"/>
<path d="M8 24.5H10" stroke="#00681D" stroke-width="1.53125" stroke-linecap="round" stroke-linejoin="round"/>
<path d="M12 26.5C11.4696 26.5 10.9609 26.2893 10.5858 25.9142C10.2107 25.5391 10 25.0304 10 24.5C10 23.9696 10.2107 23.4609 10.5858 23.0858C10.9609 22.7107 11.4696 22.5 12 22.5C12.2626 22.5 12.5227 22.5517 12.7654 22.6522C13.008 22.7528 13.2285 22.9001 13.4142 23.0858C13.5999 23.2715 13.7472 23.492 13.8478 23.7346C13.9483 23.9773 14 24.2374 14 24.5C14 24.7626 13.9483 25.0227 13.8478 25.2654C13.7472 25.508 13.5999 25.7285 13.4142 25.9142C13.2285 26.0999 13.008 26.2472 12.7654 26.3478C12.5227 26.4483 12.2626 26.5 12 26.5Z" stroke="#00681D" stroke-width="1.53125" stroke-linecap="round" stroke-linejoin="round"/>
<path d="M14 24.5L24 24.5" stroke="#00681D" stroke-width="1.53125" stroke-linecap="round" stroke-linejoin="round"/>
</svg>
