<svg xmlns="http://www.w3.org/2000/svg" xmlns:xlink="http://www.w3.org/1999/xlink" width="500" zoomAndPan="magnify" viewBox="0 0 375 374.999991" height="500" preserveAspectRatio="xMidYMid meet" version="1.0"><defs><clipPath id="672e4e4d45"><path d="M 30 64.03125 L 345.820312 64.03125 L 345.820312 355 L 30 355 Z M 30 64.03125 " clip-rule="nonzero"/></clipPath></defs><path fill="#00681d" d="M 332.3125 188.546875 C 330.1875 189.304688 327.714844 189.039062 325.605469 187.046875 C 313.226562 175.359375 301.890625 162.589844 290.332031 150.109375 C 288.957031 148.621094 288.421875 146.960938 288.484375 145.363281 C 271.574219 129.109375 250.320312 118.171875 229.507812 107.527344 C 228.078125 106.789062 227.144531 105.792969 226.621094 104.683594 C 214.480469 99.011719 202.410156 93.179688 190.417969 87.199219 C 189.210938 86.601562 188.363281 85.820312 187.808594 84.9375 C 187.277344 85.679688 186.597656 86.296875 185.746094 86.714844 C 156.996094 100.757812 128.988281 116.125 101.050781 131.679688 C 94.515625 138.347656 88.066406 145.117188 81.664062 151.925781 C 81.519531 153.269531 80.875 154.625 79.558594 155.820312 C 74.03125 160.84375 68.769531 166.140625 63.828125 171.734375 C 59.660156 176.464844 54.042969 181.890625 52.035156 188.003906 C 49.964844 194.3125 41.855469 193.722656 39.351562 189.398438 C 37.984375 188.832031 36.753906 187.917969 35.808594 186.707031 C 31.101562 180.6875 38.117188 173.527344 41.683594 168.722656 C 48.84375 159.074219 56.878906 150.1875 65.882812 142.226562 C 67.261719 141.003906 68.78125 140.472656 70.253906 140.449219 C 72.878906 137.019531 75.507812 133.597656 78.203125 130.222656 C 79.46875 128.636719 80.769531 127.066406 82.09375 125.507812 C 82.1875 125.257812 82.289062 125.003906 82.402344 124.757812 C 86.808594 115.417969 94.855469 108.742188 104.296875 105.441406 C 109.289062 102.300781 114.679688 99.8125 120.566406 98.242188 C 121.449219 98.003906 122.269531 97.945312 123.039062 98.015625 C 123.871094 97.550781 124.703125 97.089844 125.539062 96.621094 C 140.113281 88.554688 154.980469 80.644531 170.738281 75.171875 C 175.691406 71.371094 181.132812 68.585938 187.359375 67.527344 C 190.78125 66.941406 193.902344 68.171875 195.347656 71.449219 C 195.804688 72.496094 195.957031 73.738281 195.8125 74.953125 C 196.277344 75.078125 196.757812 75.253906 197.238281 75.496094 C 199.070312 76.410156 200.90625 77.316406 202.738281 78.222656 C 204.863281 76.515625 207.855469 76.394531 210.441406 77.605469 C 236.207031 89.722656 261.015625 103.757812 284.667969 119.609375 C 286.039062 119.734375 287.433594 120.378906 288.65625 121.746094 C 305.480469 140.492188 321.949219 159.664062 339.761719 177.492188 C 345.257812 182.992188 338.253906 191.179688 332.3125 188.546875 Z M 227.839844 164.734375 C 227.320312 160.433594 224.371094 155.929688 219.371094 156.269531 C 206.109375 157.175781 192.816406 157.59375 179.523438 157.460938 C 172.882812 157.398438 166.238281 157.183594 159.601562 156.867188 C 152.03125 156.515625 144.429688 159.78125 144.386719 168.523438 C 144.355469 174.574219 149.792969 177.445312 155.101562 176.683594 C 156.902344 176.425781 158.710938 176.21875 160.527344 176.042969 C 163.765625 177.183594 167.542969 176.5 170.882812 176.375 C 173.964844 176.261719 177.054688 176.171875 180.136719 176.109375 C 193.359375 175.847656 206.589844 176.089844 219.800781 176.796875 C 223.988281 177.023438 228.796875 172.71875 228.265625 168.332031 C 228.128906 167.136719 227.984375 165.9375 227.839844 164.734375 Z M 227.839844 164.734375 " fill-opacity="1" fill-rule="nonzero"/><path fill="#fef8e2" d="M 268.398438 223.917969 C 255.859375 225.5 243.199219 225.085938 230.597656 224.964844 C 217.582031 224.847656 204.566406 224.746094 191.558594 224.605469 C 165.773438 224.328125 140.167969 222.953125 114.476562 220.78125 C 113.324219 220.6875 112.378906 220.925781 111.636719 221.390625 C 109.921875 221.664062 108.734375 222.664062 108.066406 223.945312 C 107.394531 224.335938 106.800781 224.910156 106.347656 225.691406 C 105.453125 227.214844 105.476562 229.546875 106.484375 231.148438 C 105.847656 233.953125 107.4375 237.308594 111.25 237.484375 C 115.484375 237.679688 119.691406 237.402344 123.855469 236.726562 C 123.804688 237.773438 123.832031 238.855469 123.875 239.984375 C 123.707031 240.71875 123.710938 241.503906 123.949219 242.347656 C 123.964844 242.394531 123.984375 242.4375 123.996094 242.480469 C 124.253906 247.207031 124.6875 251.929688 124.765625 256.664062 C 124.933594 267.367188 124.097656 278 124.539062 288.722656 C 124.964844 299.164062 125.695312 309.617188 125.304688 320.070312 C 125.117188 325.242188 124.65625 330.390625 123.667969 335.46875 C 122.695312 340.457031 121.386719 345.121094 122.613281 350.195312 C 123.605469 354.285156 128.023438 354.617188 130.625 352.644531 C 142.121094 353.894531 153.703125 354.222656 165.25 353.503906 C 170.058594 353.207031 174.816406 352.640625 179.589844 352.066406 C 180.386719 353.226562 181.71875 354.015625 183.585938 353.964844 C 194.726562 353.671875 205.871094 353.804688 217.007812 354.375 C 219.058594 354.472656 220.457031 353.546875 221.21875 352.21875 C 221.75 352.261719 222.277344 352.3125 222.808594 352.355469 C 227.9375 352.804688 233.074219 353.199219 238.230469 353.25 C 243.621094 353.308594 248.996094 352.644531 254.378906 352.960938 C 260.835938 353.339844 260.886719 343.417969 254.589844 342.824219 C 254.589844 307.347656 254.589844 271.867188 254.589844 236.394531 C 256.679688 236.550781 258.761719 236.765625 260.839844 237.046875 C 261.554688 237.144531 262.257812 237.144531 262.933594 237.042969 C 264.679688 237.160156 266.429688 237.242188 268.175781 237.300781 C 271.992188 237.414062 273.574219 234.011719 272.941406 231.109375 C 273.949219 228.054688 272.488281 223.402344 268.398438 223.917969 Z M 141.5625 244.78125 C 145.839844 244.605469 150.140625 244.316406 154.425781 244.328125 C 160.558594 244.347656 166.535156 246.117188 172.597656 246.648438 C 172.542969 246.894531 172.492188 247.152344 172.460938 247.40625 C 171.9375 251.507812 169.199219 254.496094 167.027344 257.824219 C 165.007812 260.898438 163.683594 264.347656 162.234375 267.710938 C 160.589844 271.53125 158.945312 275.359375 157.300781 279.179688 C 157.125 279.59375 156.921875 280.023438 156.714844 280.453125 C 156.4375 279.863281 156.140625 279.292969 155.808594 278.730469 C 153.769531 275.320312 151.1875 272.261719 149.105469 268.871094 C 144.707031 261.71875 141.726562 253.859375 138.769531 246.03125 C 138.597656 245.578125 138.386719 245.179688 138.132812 244.820312 C 139.3125 244.820312 140.464844 244.828125 141.5625 244.78125 Z M 134.804688 263.289062 C 136.28125 266.597656 137.886719 269.847656 139.726562 272.96875 C 141.863281 276.585938 144.554688 279.816406 146.761719 283.382812 C 148.816406 286.710938 149.648438 290.628906 151.980469 293.78125 C 152.019531 293.832031 152.054688 293.875 152.089844 293.921875 C 152.105469 294.003906 152.125 294.085938 152.152344 294.167969 C 152.15625 294.183594 152.164062 294.199219 152.167969 294.21875 C 152.050781 294.363281 151.9375 294.511719 151.828125 294.675781 C 147.582031 301.003906 145.074219 308.183594 140.476562 314.34375 C 138.820312 316.5625 137.097656 318.730469 135.421875 320.929688 C 135.421875 320.859375 135.429688 320.796875 135.433594 320.726562 C 135.832031 311.148438 135.265625 301.566406 134.832031 292 C 134.390625 282.390625 134.433594 272.894531 134.804688 263.289062 Z M 166.539062 343.265625 C 155.144531 344.050781 143.710938 343.816406 132.347656 342.675781 C 132.5 341.691406 132.71875 340.695312 132.953125 339.710938 C 134.546875 339.800781 136.128906 339.0625 137.0625 337.121094 C 140.195312 330.605469 144.953125 325.222656 149.238281 319.46875 C 152.269531 315.402344 154.386719 310.902344 156.703125 306.488281 C 161.78125 318.179688 168.722656 328.972656 177.3125 338.515625 C 177.339844 338.546875 177.371094 338.570312 177.394531 338.597656 C 177.40625 339.726562 177.414062 340.851562 177.4375 341.980469 C 173.746094 342.484375 170.082031 343.023438 166.539062 343.265625 Z M 177.714844 317.457031 C 177.640625 319.207031 177.582031 320.953125 177.535156 322.707031 C 171.027344 313.742188 165.96875 303.796875 162.511719 293.226562 C 163.78125 292.246094 164.542969 290.695312 164.132812 288.746094 C 165.273438 285.386719 167.011719 282.101562 168.40625 278.871094 C 169.988281 275.1875 171.515625 271.476562 173.171875 267.828125 C 174.546875 264.789062 176.40625 262.230469 178.238281 259.488281 C 178.113281 263.0625 178.007812 266.640625 177.957031 270.222656 C 177.796875 280.589844 178.101562 290.953125 179.394531 301.246094 C 178.050781 306.484375 177.949219 312.03125 177.714844 317.457031 Z M 187.921875 340.980469 C 187.808594 340.984375 187.699219 340.984375 187.585938 340.992188 C 187.582031 340.734375 187.582031 340.476562 187.574219 340.222656 C 187.699219 340.332031 187.828125 340.429688 187.957031 340.527344 C 187.945312 340.671875 187.933594 340.828125 187.921875 340.980469 Z M 237.140625 235.203125 C 237.40625 235.414062 237.703125 235.597656 238.03125 235.742188 C 237.550781 235.75 237.070312 235.75 236.59375 235.757812 C 236.566406 235.566406 236.535156 235.378906 236.492188 235.195312 C 236.710938 235.195312 236.925781 235.195312 237.140625 235.203125 Z M 222.46875 246.0625 C 226.066406 246.035156 229.664062 246.011719 233.269531 245.980469 C 235.074219 245.96875 236.871094 245.953125 238.671875 245.941406 C 238.9375 245.941406 239.203125 245.9375 239.46875 245.9375 C 234.191406 256.851562 228.292969 267.894531 224.21875 279.410156 C 221.269531 275.855469 218.539062 272.125 216.0625 268.191406 C 211.917969 261.605469 209.0625 254.207031 204.429688 247.933594 C 203.90625 247.226562 203.269531 246.636719 202.570312 246.207031 C 209.199219 246.15625 215.832031 246.105469 222.46875 246.0625 Z M 201.648438 263.011719 C 203.660156 266.824219 205.589844 270.6875 207.914062 274.304688 C 209.683594 277.058594 211.582031 279.734375 213.574219 282.328125 C 213.65625 282.847656 213.8125 283.375 214.078125 283.917969 C 215.167969 286.160156 216.164062 288.425781 217.015625 290.769531 C 217.292969 291.53125 218.351562 293.75 218.6875 295.351562 C 214.664062 301.476562 210.644531 307.609375 206.621094 313.738281 C 205.847656 314.921875 205.078125 316.109375 204.320312 317.296875 C 204.308594 308.296875 204.214844 299.273438 203.484375 290.308594 C 202.746094 281.296875 200.867188 272.085938 201.648438 263.011719 Z M 244.425781 342.957031 C 242.574219 343.039062 240.722656 343.117188 238.867188 343.109375 C 233.503906 343.085938 228.148438 342.675781 222.800781 342.207031 C 214.570312 341.488281 206.339844 340.675781 198.09375 340.816406 C 198.15625 339.996094 198.214844 339.175781 198.265625 338.355469 C 198.707031 338.660156 199.179688 338.894531 199.664062 339.03125 C 202.523438 339.851562 204.921875 338.03125 205.910156 335.484375 C 208.378906 329.125 212.382812 323.449219 216.101562 317.777344 C 218.605469 313.972656 221.101562 310.15625 223.601562 306.351562 C 226.074219 310.808594 228.621094 315.226562 231.40625 319.492188 C 233.328125 322.449219 235.375 325.316406 237.542969 328.097656 C 239.65625 330.8125 242.492188 333.453125 243.621094 336.769531 C 243.824219 337.363281 244.101562 337.871094 244.425781 338.300781 C 244.425781 339.863281 244.425781 341.414062 244.425781 342.957031 Z M 240.859375 315.40625 C 236.738281 309.207031 233.144531 302.675781 229.582031 296.140625 C 230.042969 295.589844 230.398438 294.886719 230.585938 294.003906 C 233.214844 281.722656 238.816406 270.160156 244.425781 258.804688 C 244.425781 279.273438 244.425781 299.738281 244.425781 320.203125 C 243.171875 318.628906 241.945312 317.046875 240.859375 315.40625 Z M 139.757812 188.289062 L 139.789062 188.507812 L 141.289062 188.402344 L 142.710938 188.507812 L 142.726562 188.300781 L 148.867188 187.867188 L 241.527344 189.503906 L 240.539062 142.523438 L 131.929688 142.488281 L 132.742188 187.757812 Z M 229.453125 155.910156 L 229.453125 179.46875 L 154.003906 178.78125 L 154.023438 178.75 L 144.769531 178.457031 L 143.628906 178.179688 L 143.691406 177.441406 L 142.644531 154.21875 Z M 229.453125 155.910156 " fill-opacity="1" fill-rule="nonzero"/><path fill="#243b25" d="M 309.394531 234.703125 C 309.765625 223.914062 309.621094 213.101562 308.964844 202.324219 C 308.296875 191.382812 308.523438 178.390625 302.648438 168.753906 C 300.769531 165.679688 297.4375 163.871094 294 163.78125 C 290.792969 160.039062 287.585938 156.289062 284.375 152.542969 C 284.175781 151.484375 283.828125 150.417969 283.3125 149.378906 C 279.441406 141.5 272.015625 136.765625 265.050781 131.921875 C 264.375 131.453125 263.707031 130.980469 263.046875 130.496094 C 263.203125 130.589844 261.785156 129.46875 261.617188 129.316406 C 260.039062 127.921875 258.597656 126.390625 257.132812 124.890625 C 253.648438 121.316406 249.824219 118.152344 245.449219 115.726562 C 236.914062 110.992188 227.933594 107.015625 219.308594 102.433594 C 210.546875 97.777344 201.902344 92.917969 193.359375 87.878906 C 190.359375 86.117188 186.085938 85.921875 183.105469 87.878906 C 176.3125 92.355469 169.476562 96.792969 162.652344 101.25 C 160.546875 100.996094 158.371094 101.375 156.5 102.554688 C 144.632812 110.03125 131.992188 115.507812 119.519531 121.804688 C 107.917969 127.664062 96.550781 136.003906 90.972656 148.125 C 90.675781 148.773438 90.429688 149.441406 90.242188 150.109375 C 86.03125 154.382812 82.175781 158.980469 79.015625 164.121094 C 71.667969 176.109375 71.390625 189.351562 70.613281 202.980469 C 69.859375 216.324219 68.503906 229.792969 68.542969 243.164062 C 68.558594 249.011719 69.257812 254.773438 70.363281 260.457031 C 68.90625 274.613281 67.910156 288.820312 67.546875 303.054688 C 67.335938 311.183594 67.324219 319.316406 67.53125 327.445312 C 67.632812 331.375 67.777344 335.292969 67.972656 339.214844 C 68.246094 344.636719 68.132812 349.292969 71.671875 353.742188 C 73.796875 356.410156 78.4375 357.34375 81.558594 356.351562 C 81.6875 356.308594 81.820312 356.269531 81.953125 356.226562 C 83.613281 355.703125 85.199219 354.726562 86.480469 353.445312 C 87.785156 353.371094 89.09375 353.300781 90.398438 353.226562 C 94.679688 353.164062 98.945312 352.917969 103.214844 352.5 C 103.90625 352.433594 104.59375 352.304688 105.269531 352.128906 C 106.371094 352.414062 107.476562 352.703125 108.578125 353 C 115.367188 354.832031 120.90625 349.714844 121.4375 343.203125 C 123.542969 317.367188 125.3125 291.488281 122.078125 265.777344 C 122.507812 262.695312 122.957031 259.605469 123.414062 256.5 C 123.738281 254.335938 123.558594 252.054688 122.847656 250.027344 C 123.445312 248.742188 123.84375 247.304688 124.019531 245.746094 C 124.613281 240.535156 120.410156 235.675781 115.566406 234.339844 C 112.554688 233.507812 109.726562 234.199219 107.039062 235.371094 C 106.707031 234.507812 106.378906 233.632812 106.0625 232.730469 C 106.023438 232.625 105.988281 232.515625 105.949219 232.402344 C 106.515625 229.617188 106.902344 226.773438 107.429688 223.855469 C 107.683594 222.480469 107.964844 221.183594 108.28125 219.929688 C 108.96875 219.917969 109.648438 219.898438 110.292969 219.878906 C 114.515625 219.746094 118.777344 219.429688 123 219.660156 C 126.648438 219.855469 131.539062 221.453125 135.996094 221.78125 C 140.640625 222.128906 145.351562 221.371094 149.9375 220.609375 C 167.492188 222.179688 185.167969 222.414062 202.828125 222.695312 C 216.453125 222.917969 230.082031 223.003906 243.710938 222.96875 C 250.410156 222.949219 257.117188 222.898438 263.816406 222.824219 C 266.613281 222.789062 269.878906 222.855469 272.992188 222.464844 C 272.867188 227.046875 272.777344 231.621094 272.722656 236.203125 C 269.722656 234.761719 266.078125 234.566406 263.363281 236.574219 C 259.792969 239.214844 257.316406 242.261719 256.628906 246.769531 C 256 250.890625 256.152344 255.0625 256.105469 259.214844 C 256.03125 267.304688 255.949219 275.382812 255.875 283.46875 C 255.796875 291.558594 255.714844 299.636719 255.640625 307.722656 C 255.570312 315.011719 254.253906 323.675781 256.585938 330.699219 C 256.789062 331.316406 257.027344 331.910156 257.296875 332.488281 C 257.292969 333.152344 257.296875 333.824219 257.3125 334.511719 C 257.242188 336.644531 257.265625 338.765625 257.40625 340.910156 C 257.640625 344.585938 259.6875 348.175781 262.832031 349.941406 C 265.429688 352.042969 268.769531 352.957031 272.445312 352.941406 C 280.726562 352.910156 289.015625 352.710938 297.296875 352.597656 C 304.589844 352.496094 307.96875 346.21875 307.09375 339.738281 C 305.328125 326.726562 304.320312 312.929688 303.980469 299.554688 C 303.859375 294.917969 303.839844 290.277344 303.882812 285.636719 C 306.949219 268.835938 308.808594 251.777344 309.394531 234.703125 Z M 212.269531 188.207031 C 200.105469 187.683594 187.699219 186.832031 175.84375 190.183594 C 161.460938 188.96875 147.039062 186.480469 132.738281 187.757812 C 133.230469 179.691406 133.292969 171.609375 132.914062 163.53125 C 132.875 162.753906 132.742188 161.984375 132.546875 161.234375 C 132.769531 159.597656 132.597656 157.921875 132.011719 156.34375 C 132.011719 156.339844 132.011719 156.339844 132.011719 156.332031 C 132 155.40625 132.007812 154.480469 132.03125 153.558594 C 132.074219 151.707031 132.1875 149.863281 132.347656 148.019531 C 132.398438 147.398438 132.367188 146.789062 132.265625 146.183594 C 133.960938 144.960938 135.667969 143.746094 137.382812 142.539062 C 143.835938 142.3125 150.296875 142.085938 156.753906 141.859375 C 162.40625 143.992188 170.03125 143.535156 176.265625 142.339844 C 177.34375 142.453125 178.414062 142.566406 179.460938 142.703125 C 186.519531 143.605469 193.65625 143.335938 200.761719 143.308594 C 213.257812 143.265625 225.765625 143.222656 238.261719 143.175781 C 238.425781 144.507812 238.804688 145.835938 239.378906 147.117188 C 239.8125 148.074219 240.242188 149.046875 240.660156 150.023438 C 241.097656 163.175781 241.535156 176.332031 241.976562 189.492188 C 232.078125 189.058594 222.171875 188.632812 212.269531 188.207031 Z M 166.78125 258.132812 C 167.09375 258.945312 167.101562 259.902344 166.597656 260.886719 C 164.792969 264.398438 161.234375 275.476562 155.472656 272.320312 C 152.804688 270.859375 151.8125 267.320312 150.335938 264.851562 C 148.613281 261.964844 146.585938 259.28125 144.570312 256.601562 C 144.386719 256.359375 144.253906 256.121094 144.144531 255.882812 C 143.574219 255.382812 143.28125 254.773438 143.21875 254.136719 C 143.019531 254.125 142.816406 254.105469 142.613281 254.097656 C 138.257812 253.902344 138.253906 247.484375 142.613281 247.328125 C 145.078125 247.242188 147.390625 247.542969 149.65625 248.191406 C 151.796875 248.054688 153.953125 248.21875 156.140625 248.210938 C 160.042969 248.199219 163.867188 247.738281 167.675781 246.925781 C 170.890625 246.238281 172.699219 249.773438 171.5625 251.941406 C 171.546875 252.476562 171.367188 253.058594 170.964844 253.636719 C 169.761719 255.390625 168.3125 256.769531 166.78125 258.132812 Z M 176.328125 312.679688 C 176.410156 312.863281 176.492188 313.042969 176.574219 313.226562 C 176.738281 313.441406 176.847656 313.675781 176.898438 313.90625 C 177.140625 314.417969 177.386719 314.921875 177.652344 315.421875 C 178.660156 317.347656 175.742188 319.058594 174.726562 317.128906 C 173.890625 315.519531 173.144531 313.875 172.476562 312.191406 C 172.296875 311.980469 172.132812 311.734375 171.992188 311.441406 C 170.796875 308.953125 169.785156 306.394531 169.003906 303.761719 C 167.730469 303.679688 166.496094 302.964844 165.980469 301.425781 C 165.601562 300.300781 165.121094 299.113281 164.6875 297.898438 C 164.355469 297.34375 164.101562 296.75 163.96875 296.101562 C 163.925781 295.863281 163.898438 295.617188 163.898438 295.371094 C 163.605469 294.171875 163.433594 292.96875 163.535156 291.796875 C 163.71875 289.660156 165.027344 287.679688 166.382812 285.851562 C 166.957031 283.792969 167.648438 281.773438 168.496094 279.796875 C 169.472656 277.488281 171.015625 275.289062 171.5 272.824219 C 172.339844 268.542969 178.871094 270.371094 178.03125 274.628906 C 177.765625 275.96875 177.238281 277.191406 176.644531 278.394531 C 176.777344 278.792969 176.839844 279.242188 176.796875 279.757812 C 176.71875 280.652344 176.59375 281.523438 176.425781 282.378906 C 177.742188 283.496094 178.410156 285.589844 177.140625 287.335938 C 177.210938 293.828125 177.679688 300.300781 178.113281 306.773438 C 178.152344 307.328125 178.074219 307.804688 177.910156 308.214844 C 178.707031 310.101562 177.734375 311.851562 176.328125 312.679688 Z M 135.789062 279.636719 C 135.257812 277.867188 134.636719 276.128906 133.902344 274.433594 C 133.34375 273.121094 134.425781 271.929688 135.472656 271.847656 C 135.191406 271.074219 134.898438 270.304688 134.597656 269.535156 C 134.382812 268.984375 134.464844 268.53125 134.710938 268.183594 C 134.667969 267.988281 134.621094 267.792969 134.585938 267.597656 C 134.148438 265.46875 137.207031 264.597656 137.847656 266.699219 C 138.433594 268.613281 139.054688 270.519531 139.691406 272.410156 C 140.515625 272.476562 141.253906 273.257812 141.214844 274.089844 C 141.203125 274.300781 141.203125 274.507812 141.214844 274.714844 C 141.222656 274.773438 141.226562 274.835938 141.234375 274.898438 C 141.234375 274.867188 141.242188 274.890625 141.253906 274.96875 C 141.296875 275.175781 141.359375 275.371094 141.417969 275.574219 C 141.4375 275.617188 141.449219 275.667969 141.46875 275.710938 C 141.480469 275.742188 141.492188 275.773438 141.519531 275.824219 C 141.636719 276.078125 141.699219 276.335938 141.714844 276.585938 C 142.15625 277.40625 142.59375 278.226562 143.023438 279.050781 C 143.246094 279.191406 143.453125 279.378906 143.628906 279.65625 C 146.164062 283.683594 148.46875 287.832031 150.550781 292.117188 C 151.222656 293.5 149.863281 295.042969 148.601562 294.632812 C 148.601562 294.640625 148.609375 294.644531 148.609375 294.652344 C 148.835938 295.15625 148.816406 295.640625 148.644531 296.050781 C 149.390625 296.503906 149.851562 297.445312 149.265625 298.320312 C 146.957031 301.792969 144.644531 305.265625 142.332031 308.738281 C 142.007812 309.230469 141.554688 309.457031 141.101562 309.507812 C 140.472656 310.441406 139.839844 311.367188 139.191406 312.292969 C 139.003906 312.566406 138.769531 312.753906 138.53125 312.878906 C 138.226562 314.039062 137.929688 315.199219 137.628906 316.359375 C 137.082031 318.472656 133.816406 317.570312 134.363281 315.457031 C 134.472656 315.0625 134.570312 314.671875 134.671875 314.273438 C 134.539062 313.972656 134.484375 313.617188 134.558594 313.21875 C 134.570312 313.15625 134.597656 313.039062 134.628906 312.886719 C 134.539062 312.609375 134.539062 312.300781 134.660156 311.972656 C 134.78125 311.65625 134.90625 311.34375 135.03125 311.027344 C 135.042969 310.996094 135.050781 310.957031 135.058594 310.925781 C 134.867188 308.601562 134.96875 306.351562 135.328125 304.085938 C 135.429688 301.421875 135.535156 298.761719 135.636719 296.09375 C 135.644531 295.957031 135.664062 295.824219 135.695312 295.703125 C 135.636719 294.910156 135.574219 294.117188 135.511719 293.320312 C 135.234375 291.671875 135.019531 290.011719 134.867188 288.328125 C 134.847656 288.078125 134.878906 287.851562 134.949219 287.65625 C 134.9375 287.597656 134.925781 287.542969 134.914062 287.484375 C 134.710938 286.578125 135.113281 285.929688 135.699219 285.621094 C 135.542969 285.058594 135.386719 284.496094 135.238281 283.929688 C 134.992188 282.980469 135.429688 282.316406 136.066406 282.035156 C 135.984375 281.773438 135.894531 281.523438 135.8125 281.265625 C 135.648438 280.773438 135.710938 280.355469 135.902344 280.023438 C 135.871094 279.890625 135.839844 279.757812 135.789062 279.636719 Z M 174.640625 340.097656 C 174.5 340.066406 174.371094 340.039062 174.230469 340.015625 C 174.238281 339.800781 174.1875 339.574219 174.085938 339.339844 C 174.058594 339.234375 174.015625 339.125 173.972656 339.019531 C 173.996094 338.714844 173.921875 338.390625 173.714844 338.054688 C 173.40625 337.558594 173.082031 337.066406 172.761719 336.574219 C 171.414062 333.902344 169.96875 331.285156 168.4375 328.714844 C 168.867188 328.242188 169.042969 327.542969 168.660156 326.792969 C 166.527344 322.65625 164.070312 318.753906 161.308594 315.042969 C 160.199219 313.269531 159.089844 311.492188 157.980469 309.722656 C 157.898438 309.589844 157.8125 309.484375 157.714844 309.386719 C 158.03125 308.574219 157.765625 307.769531 157.035156 307.257812 C 156.992188 307.226562 156.949219 307.195312 156.902344 307.164062 C 156.234375 306.695312 155.265625 306.960938 154.753906 307.546875 C 154.1875 307.625 153.683594 307.988281 153.542969 308.75 C 153.179688 310.710938 152.675781 312.660156 152.101562 314.589844 C 151.371094 314.171875 150.390625 314.222656 149.871094 315.179688 C 146.1875 321.945312 142.15625 328.488281 137.753906 334.808594 C 137.207031 335.601562 137.472656 336.371094 138.042969 336.832031 C 137.703125 337.210938 137.363281 337.589844 137.015625 337.960938 C 137.003906 337.972656 137 337.992188 136.984375 338.003906 C 136.632812 338.199219 136.285156 338.394531 135.921875 338.578125 C 135.472656 338.796875 135.234375 339.171875 135.144531 339.578125 C 133.273438 340.335938 134.128906 343.253906 136.203125 342.78125 C 136.40625 342.738281 136.609375 342.6875 136.808594 342.644531 C 136.917969 342.65625 137.023438 342.667969 137.144531 342.664062 C 149.308594 342.144531 161.757812 340.644531 173.75 343.378906 C 175.855469 343.847656 176.765625 340.582031 174.640625 340.097656 Z M 153.605469 327.429688 C 153.632812 327.382812 153.65625 327.339844 153.683594 327.296875 C 153.703125 327.351562 153.714844 327.410156 153.734375 327.472656 C 153.6875 327.453125 153.644531 327.445312 153.605469 327.429688 Z M 206.382812 250.128906 C 205.605469 249.003906 206.464844 247.183594 208.179688 247.523438 C 210.027344 247.894531 211.878906 248.210938 213.730469 248.480469 C 214.652344 248.332031 215.585938 248.273438 216.535156 248.332031 C 218.773438 247.328125 221.238281 247.132812 223.761719 247.316406 C 225.253906 247.421875 226.714844 247.53125 228.164062 247.613281 C 229.453125 247.574219 230.738281 247.605469 232.015625 247.746094 C 232.796875 247.75 233.585938 247.738281 234.378906 247.714844 C 234.722656 247.605469 235.042969 247.601562 235.332031 247.675781 C 235.773438 247.65625 236.214844 247.632812 236.664062 247.59375 C 238.21875 247.472656 238.765625 249.492188 237.859375 250.488281 C 237.804688 250.550781 237.746094 250.613281 237.691406 250.675781 C 237.582031 250.960938 237.367188 251.210938 237.027344 251.40625 C 236.523438 251.960938 236.027344 252.515625 235.535156 253.078125 C 235.554688 253.359375 235.503906 253.667969 235.332031 253.984375 C 234.921875 254.746094 234.5 255.496094 234.066406 256.242188 C 234.050781 256.285156 234.035156 256.335938 234.015625 256.378906 C 233.902344 256.675781 233.738281 256.921875 233.535156 257.125 C 233.382812 257.375 233.234375 257.628906 233.082031 257.875 C 232.957031 258.296875 232.824219 258.71875 232.691406 259.140625 C 232.734375 259.449219 232.703125 259.777344 232.558594 260.117188 C 231.378906 262.816406 230.207031 265.511719 229.027344 268.210938 C 228.828125 268.65625 228.523438 268.917969 228.183594 269.023438 C 227.464844 270.976562 226.753906 272.933594 226.035156 274.886719 C 225.429688 276.542969 223.414062 276.421875 222.769531 274.886719 C 222.386719 273.953125 221.9375 273.0625 221.453125 272.199219 C 221.371094 272.132812 221.289062 272.054688 221.214844 271.96875 C 218.261719 268.445312 215.566406 264.75 213.121094 260.855469 C 212.730469 260.230469 212.847656 259.539062 213.234375 259.035156 C 212.339844 257.917969 211.386719 256.847656 210.367188 255.8125 C 209.90625 255.351562 209.8125 254.742188 209.957031 254.207031 C 209.894531 254.125 209.824219 254.046875 209.753906 253.964844 C 209.558594 253.757812 209.371094 253.550781 209.15625 253.355469 C 209.074219 253.277344 209.015625 253.203125 208.953125 253.128906 C 208.394531 253.039062 207.832031 252.9375 207.269531 252.835938 C 205.992188 252.597656 205.796875 251.027344 206.382812 250.128906 Z M 202.523438 313.839844 C 202.472656 314.785156 203.339844 315.488281 204.21875 315.535156 C 204.390625 315.539062 204.554688 315.546875 204.726562 315.558594 C 206.066406 315.621094 206.578125 314.363281 206.261719 313.359375 C 206.515625 313.101562 206.703125 312.753906 206.753906 312.320312 C 206.765625 312.207031 206.78125 312.097656 206.792969 311.984375 C 208.007812 309.546875 209.425781 307.234375 211.054688 305.046875 C 211.210938 304.835938 211.296875 304.628906 211.34375 304.429688 C 211.835938 304.421875 212.339844 304.183594 212.710938 303.613281 C 214.253906 301.25 217.316406 298.21875 217.171875 295.167969 C 218.476562 295.097656 219.128906 293.273438 218.207031 292.25 C 217.652344 291.640625 217.078125 291.160156 216.398438 290.882812 C 216.308594 290.5 216.207031 290.152344 216.078125 289.863281 C 214.773438 286.894531 212.742188 284.113281 210.972656 281.410156 C 210.144531 280.148438 209.28125 278.441406 208.253906 276.960938 C 207.773438 275.84375 207.300781 274.734375 206.824219 273.617188 C 206.664062 272.609375 206.34375 271.664062 205.867188 270.644531 C 204.933594 268.675781 202.015625 270.390625 202.941406 272.351562 C 202.960938 272.382812 202.964844 272.414062 202.984375 272.445312 C 202.929688 272.769531 202.953125 273.113281 203.105469 273.472656 C 203.242188 273.800781 203.382812 274.121094 203.519531 274.449219 C 203.289062 274.742188 203.160156 275.117188 203.125 275.503906 C 202.996094 275.90625 203.054688 276.285156 203.21875 276.617188 C 203.230469 276.699219 203.242188 276.78125 203.257812 276.859375 C 203.238281 277.058594 203.257812 277.28125 203.324219 277.519531 C 203.371094 277.679688 203.414062 277.835938 203.457031 277.992188 C 203.582031 278.648438 203.714844 279.296875 203.875 279.945312 C 203.386719 280.3125 203.0625 280.910156 203.1875 281.660156 C 203.257812 282.089844 203.320312 282.523438 203.382812 282.953125 C 202.570312 290.597656 202.492188 298.246094 203.15625 305.910156 C 203.210938 306.53125 203.535156 306.96875 203.957031 307.234375 C 203.941406 307.339844 203.929688 307.441406 203.917969 307.546875 C 203.25 309.589844 202.636719 311.605469 202.523438 313.839844 Z M 209.179688 287.648438 C 209.167969 287.648438 209.160156 287.648438 209.148438 287.648438 C 209.144531 287.613281 209.136719 287.566406 209.125 287.53125 C 209.148438 287.566406 209.160156 287.613281 209.179688 287.648438 Z M 244.105469 293.441406 C 244.132812 295.3125 244.15625 297.1875 244.183594 299.058594 C 244.855469 305.234375 245.175781 311.425781 245.132812 317.644531 C 245.121094 319.828125 241.734375 319.828125 241.75 317.644531 C 241.753906 317.078125 241.75 316.511719 241.75 315.945312 C 241.609375 315.816406 241.476562 315.652344 241.375 315.445312 C 240.394531 313.429688 239.957031 311.246094 239.195312 309.15625 C 237.796875 306.546875 236.46875 303.90625 235.210938 301.226562 C 234.273438 300.007812 233.335938 298.800781 232.371094 297.601562 C 231.867188 296.964844 231.882812 296.234375 232.175781 295.652344 C 232.113281 295.472656 232.074219 295.261719 232.078125 295.03125 C 232.09375 294.394531 232.113281 293.761719 232.125 293.125 C 232.136719 292.484375 232.464844 292.015625 232.898438 291.746094 C 232.804688 291.457031 232.8125 291.109375 232.96875 290.726562 C 233.429688 289.601562 233.894531 288.480469 234.355469 287.359375 C 234.167969 286.9375 234.121094 286.4375 234.347656 285.914062 C 236.730469 280.371094 238.898438 274.734375 241.113281 269.125 C 241.179688 268.460938 241.246094 267.808594 241.3125 267.144531 C 241.351562 266.824219 241.457031 266.558594 241.609375 266.332031 C 241.628906 266.210938 241.640625 266.085938 241.660156 265.960938 C 241.691406 265.777344 241.75 265.625 241.816406 265.488281 C 242.140625 263.445312 245.40625 263.457031 245.183594 265.589844 C 245.152344 265.910156 245.121094 266.226562 245.089844 266.539062 C 245.144531 266.722656 245.175781 266.929688 245.160156 267.164062 C 244.996094 269.488281 244.8125 271.808594 244.621094 274.136719 C 244.691406 275.824219 244.800781 277.5 244.851562 279.152344 C 244.980469 283.394531 245.109375 287.644531 245.242188 291.886719 C 245.265625 292.753906 244.75 293.273438 244.105469 293.441406 Z M 242.882812 339.648438 C 242.5625 339.429688 242.273438 339.207031 241.996094 338.988281 C 241.492188 338.046875 240.816406 337.363281 239.78125 336.800781 C 239.746094 336.75 239.699219 336.707031 239.664062 336.65625 C 239.109375 335.753906 238.488281 334.902344 237.796875 334.082031 C 236.0625 331.015625 234.222656 328.015625 232.257812 325.09375 C 231.007812 322.636719 229.765625 320.171875 228.539062 317.707031 C 228.230469 316.472656 227.9375 315.230469 227.691406 313.976562 C 227.640625 313.710938 227.527344 313.503906 227.378906 313.328125 C 227.339844 312.710938 227.289062 312.09375 227.265625 311.46875 C 227.207031 310.253906 225.683594 309.375 224.707031 309.925781 C 224.535156 309.578125 224.363281 309.238281 224.199219 308.890625 C 223.351562 307.136719 220.601562 308.378906 221.105469 310.195312 C 221.257812 310.75 221.425781 311.296875 221.585938 311.851562 C 220.90625 312.179688 220.4375 312.875 220.777344 313.738281 C 220.792969 313.773438 220.808594 313.8125 220.828125 313.851562 C 220.613281 313.914062 220.40625 314.015625 220.242188 314.160156 C 219.421875 313.894531 218.378906 314.179688 217.980469 315.21875 C 217.929688 315.359375 217.886719 315.503906 217.828125 315.640625 C 217.816406 315.667969 217.808594 315.699219 217.796875 315.730469 C 217.464844 316.648438 217.148438 317.570312 216.859375 318.503906 C 216.304688 318.484375 215.773438 318.722656 215.503906 319.339844 C 215.445312 319.472656 215.390625 319.613281 215.332031 319.746094 C 215.328125 319.757812 215.328125 319.761719 215.320312 319.777344 C 215.082031 320.335938 214.839844 320.898438 214.621094 321.464844 C 214.25 321.566406 213.914062 321.792969 213.6875 322.183594 C 211.21875 326.40625 208.746094 330.636719 206.273438 334.859375 C 203.878906 336.367188 202.203125 338.578125 201.445312 341.519531 C 201.152344 342.675781 202.273438 344.074219 203.527344 343.601562 C 206.179688 342.605469 208.871094 341.960938 211.59375 341.671875 C 211.941406 341.703125 212.292969 341.714844 212.640625 341.742188 C 216.214844 342.246094 219.769531 342.371094 223.363281 342.082031 C 224.414062 342.121094 225.472656 342.140625 226.535156 342.152344 C 226.792969 342.328125 227.125 342.417969 227.542969 342.371094 C 228.246094 342.289062 228.941406 342.234375 229.632812 342.203125 C 229.878906 342.6875 230.351562 343.046875 231.078125 343.035156 C 234.726562 342.957031 238.375 342.882812 242.027344 342.808594 C 243.785156 342.769531 244.238281 340.582031 242.882812 339.648438 Z M 214.230469 337.507812 C 214.199219 337.507812 214.160156 337.5 214.128906 337.5 C 214.203125 337.425781 214.28125 337.335938 214.34375 337.242188 C 214.394531 337.328125 214.445312 337.417969 214.507812 337.492188 C 214.417969 337.5 214.324219 337.5 214.230469 337.507812 Z M 224.792969 323.824219 C 224.84375 323.355469 224.894531 322.890625 224.9375 322.421875 C 225.015625 322.953125 225.082031 323.480469 225.164062 324.003906 C 225.050781 323.929688 224.925781 323.867188 224.792969 323.824219 Z M 224.792969 323.824219 " fill-opacity="1" fill-rule="nonzero"/><path fill="#fef8e2" d="M 201.144531 344.453125 C 200.992188 347.199219 198.9375 349.53125 196.0625 349.53125 C 193.421875 349.53125 190.832031 347.195312 190.984375 344.453125 C 191.171875 340.992188 191.234375 337.539062 191.167969 334.078125 C 191.039062 327.527344 201.195312 327.546875 201.328125 334.078125 C 201.398438 337.539062 201.332031 341 201.144531 344.453125 Z M 201.144531 344.453125 " fill-opacity="1" fill-rule="nonzero"/><g clip-path="url(#672e4e4d45)"><path fill="#000000" d="M 345.003906 180.722656 C 328.390625 162.34375 311.78125 143.964844 295.167969 125.578125 C 292.085938 122.167969 288.996094 118.753906 285.914062 115.34375 C 284.867188 114.183594 284.078125 113.683594 282.691406 112.949219 C 272.53125 107.570312 262.359375 102.207031 252.1875 96.855469 C 238.085938 89.4375 223.980469 82.03125 209.824219 74.707031 C 204.6875 72.054688 199.554688 69.394531 194.382812 66.808594 C 192.75 65.988281 190.09375 64.023438 188.171875 64.023438 C 185.980469 64.03125 182.910156 66.199219 181.007812 67.085938 C 175.660156 69.578125 170.339844 72.121094 165.027344 74.667969 C 150.621094 81.582031 136.25 88.566406 121.882812 95.570312 C 111.75 100.503906 101.621094 105.453125 91.496094 110.414062 C 91.003906 110.652344 90.355469 110.855469 89.921875 111.1875 C 87.671875 112.890625 85.914062 116.371094 84.179688 118.613281 C 81.652344 121.890625 79.09375 125.152344 76.507812 128.382812 C 66.746094 140.605469 56.589844 152.511719 46.0625 164.078125 C 40.945312 169.707031 35.734375 175.253906 30.4375 180.722656 C 29.589844 181.605469 30.792969 182.925781 31.699219 182.3125 C 31.738281 182.363281 31.777344 182.414062 31.824219 182.464844 C 35.570312 186.082031 39.269531 189.75 43.0625 193.316406 C 45.042969 195.183594 46.179688 195.921875 48.199219 193.898438 C 50.078125 192.011719 51.578125 189.5 53.304688 187.445312 C 54.863281 185.585938 56.464844 183.761719 58.109375 181.980469 C 60.214844 179.695312 62.394531 177.496094 64.640625 175.355469 C 64.953125 175.882812 65.660156 176.15625 66.171875 175.5625 C 66.378906 175.316406 66.582031 175.078125 66.789062 174.832031 C 68.363281 201.652344 67.136719 228.394531 66.808594 255.226562 C 66.484375 281.453125 66.730469 307.6875 67.035156 333.90625 C 67.109375 340.417969 67.191406 346.9375 67.292969 353.445312 C 67.300781 353.996094 67.753906 354.460938 68.308594 354.460938 C 130.953125 354.460938 193.605469 354.460938 256.253906 354.460938 C 273.832031 354.460938 291.410156 354.460938 308.984375 354.460938 C 309.53125 354.460938 310.003906 353.996094 310 353.445312 C 309.871094 332.730469 309.789062 312.011719 309.738281 291.285156 C 309.664062 262.449219 309.40625 233.582031 310 204.75 C 310.199219 194.792969 310.421875 184.835938 310.632812 174.875 C 316.527344 181.582031 322.429688 188.289062 328.320312 194.996094 C 328.707031 195.429688 329.359375 195.328125 329.757812 194.996094 C 334.839844 190.722656 339.917969 186.441406 345.003906 182.167969 C 345.441406 181.796875 345.34375 181.101562 345.003906 180.722656 Z M 105.78125 220.523438 C 104.859375 225.664062 104.539062 230.816406 104.867188 236.035156 C 104.902344 236.632812 105.355469 236.953125 105.824219 237.003906 C 105.824219 275.476562 105.835938 313.953125 105.835938 352.425781 C 100.730469 352.425781 95.625 352.425781 90.519531 352.425781 C 90.734375 301.351562 90.941406 250.277344 91.15625 199.199219 C 91.21875 184.683594 91.277344 170.160156 91.339844 155.644531 C 91.34375 154.339844 89.316406 154.332031 89.308594 155.644531 C 89.089844 207.058594 88.882812 258.472656 88.671875 309.886719 C 88.617188 324.066406 88.554688 338.242188 88.496094 352.425781 C 82.105469 352.425781 75.714844 352.425781 69.324219 352.425781 C 69.058594 335.34375 68.886719 318.257812 68.785156 301.175781 C 68.710938 287.433594 68.679688 273.6875 68.800781 259.949219 C 68.917969 246.402344 69.605469 232.875 69.777344 219.332031 C 69.972656 203.875 69.699219 188.363281 68.722656 172.933594 C 68.71875 172.820312 68.691406 172.726562 68.660156 172.632812 C 75.851562 164.148438 83.007812 155.621094 90.355469 147.273438 C 94.265625 142.835938 98.261719 138.46875 102.4375 134.285156 C 103.5625 133.160156 104.480469 132.117188 105.796875 131.316406 C 112.484375 127.242188 119.660156 123.808594 126.542969 120.082031 C 146.0625 109.511719 165.589844 98.9375 185.109375 88.367188 C 185.867188 87.957031 186.960938 87.585938 187.617188 87.015625 C 188.820312 88.144531 191.527344 89.003906 192.8125 89.703125 C 198.851562 92.980469 204.886719 96.257812 210.925781 99.542969 C 210.925781 113.988281 210.925781 128.433594 210.925781 142.882812 C 194.238281 142.925781 177.546875 142.6875 160.863281 142.167969 C 160.863281 142.164062 160.863281 142.164062 160.863281 142.15625 C 160.863281 134.78125 160.863281 127.402344 160.863281 120.027344 C 160.863281 118.722656 158.832031 118.714844 158.832031 120.027344 C 158.832031 127.386719 158.832031 134.75 158.832031 142.113281 C 150.296875 141.835938 141.769531 141.480469 133.242188 141.058594 C 133.242188 138.28125 133.230469 135.5 133.230469 132.71875 C 133.230469 128.09375 133.148438 123.449219 133.28125 118.820312 C 133.316406 117.515625 131.289062 117.515625 131.25 118.820312 C 131.035156 126.347656 131.078125 133.894531 131.144531 141.429688 C 130.953125 141.753906 130.960938 142.199219 131.15625 142.539062 C 131.1875 146.273438 131.226562 149.996094 131.230469 153.722656 C 131.273438 171.003906 131.332031 188.289062 131.535156 205.570312 C 131.585938 210.160156 131.371094 214.886719 131.84375 219.457031 C 131.84375 219.476562 131.847656 219.488281 131.855469 219.507812 C 123.351562 219.273438 114.855469 219.007812 106.359375 218.695312 C 105.25 218.636719 105.066406 220.019531 105.78125 220.523438 Z M 187.90625 86.753906 C 188.109375 86.589844 188.054688 86.671875 187.90625 86.753906 Z M 239.5 186.402344 C 239.5 187.097656 239.5 187.785156 239.5 188.476562 C 230.675781 188.363281 221.855469 188.257812 213.03125 188.144531 C 212.660156 187.777344 211.984375 187.769531 211.589844 188.125 C 202.425781 188.011719 193.257812 187.890625 184.089844 187.777344 C 183.722656 187.449219 183.09375 187.445312 182.695312 187.757812 C 170.542969 187.605469 158.390625 187.457031 146.246094 187.296875 C 142.058594 187.25 137.875 187.191406 133.6875 187.140625 C 133.425781 172.46875 133.507812 157.789062 133.941406 143.121094 C 169.019531 144.847656 204.144531 145.332031 239.257812 144.578125 C 239.121094 158.507812 239.285156 172.46875 239.5 186.402344 Z M 240.117188 219.445312 C 240.152344 219.796875 240.332031 220.050781 240.570312 220.207031 C 213.882812 220.585938 187.195312 220.554688 160.507812 220.117188 C 160.671875 219.953125 160.78125 219.734375 160.785156 219.445312 C 161.019531 209.472656 161.257812 199.5 161.492188 189.53125 C 168.417969 189.617188 175.347656 189.707031 182.273438 189.789062 C 182.035156 194.558594 181.449219 199.285156 181.277344 204.066406 C 181.234375 205.371094 183.261719 205.371094 183.308594 204.066406 C 183.476562 199.292969 184.0625 194.570312 184.304688 189.8125 C 193.277344 189.925781 202.253906 190.039062 211.230469 190.152344 C 210.996094 199.917969 210.769531 209.679688 210.535156 219.445312 C 210.503906 220.75 212.535156 220.75 212.566406 219.445312 C 212.800781 209.6875 213.027344 199.9375 213.257812 190.179688 C 217.824219 190.234375 222.386719 190.292969 226.949219 190.347656 C 231.148438 190.398438 235.351562 190.457031 239.550781 190.507812 C 239.636719 196.003906 239.71875 201.5 239.792969 206.984375 C 239.859375 211.105469 239.6875 215.335938 240.117188 219.445312 Z M 158.984375 220.09375 C 150.605469 219.949219 142.230469 219.765625 133.851562 219.542969 C 133.851562 219.511719 133.859375 219.480469 133.851562 219.445312 C 133.460938 215.679688 133.621094 211.796875 133.570312 208.023438 C 133.488281 201.738281 133.445312 195.453125 133.398438 189.171875 C 142.089844 189.277344 150.777344 189.390625 159.46875 189.5 C 159.234375 199.476562 158.996094 209.460938 158.761719 219.4375 C 158.75 219.722656 158.84375 219.9375 158.984375 220.09375 Z M 121.039062 352.425781 C 116.644531 352.425781 112.257812 352.425781 107.867188 352.425781 C 107.867188 314.070312 107.851562 275.71875 107.851562 237.363281 C 112.542969 237.957031 117.214844 238.050781 121.929688 237.621094 C 121.929688 275.65625 121.929688 313.679688 121.929688 351.714844 C 121.929688 352.027344 122.046875 352.261719 122.222656 352.425781 C 121.828125 352.425781 121.429688 352.425781 121.039062 352.425781 Z M 254.195312 352.425781 C 233.183594 352.425781 212.175781 352.425781 191.160156 352.425781 C 191.117188 314.316406 191.070312 276.203125 191.023438 238.09375 C 212.082031 238.09375 233.140625 238.09375 254.195312 238.09375 C 254.195312 276.210938 254.195312 314.316406 254.195312 352.425781 Z M 255.046875 236.066406 C 214.445312 236.066406 173.832031 236.066406 133.230469 236.066406 C 131.925781 236.066406 131.917969 238.09375 133.230469 238.09375 C 151.816406 238.09375 170.40625 238.09375 188.992188 238.09375 C 189.035156 276.203125 189.082031 314.316406 189.132812 352.425781 C 167.308594 352.425781 145.488281 352.425781 123.660156 352.425781 C 123.835938 352.261719 123.957031 352.027344 123.957031 351.714844 C 123.957031 313.503906 123.957031 275.289062 123.957031 237.078125 C 123.957031 236.921875 123.925781 236.785156 123.875 236.664062 C 124 236.070312 123.691406 235.414062 122.9375 235.496094 C 117.640625 236.066406 112.378906 236.003906 107.101562 235.238281 C 107.015625 235.226562 106.933594 235.226562 106.851562 235.234375 C 106.613281 230.367188 106.902344 225.5625 107.785156 220.753906 C 159.664062 222.644531 211.59375 223 263.496094 221.8125 C 263.839844 222.539062 265.03125 222.527344 265.347656 221.769531 C 267.585938 221.71875 269.824219 221.664062 272.054688 221.605469 C 271.871094 226.300781 271.695312 230.992188 271.511719 235.6875 C 271.511719 235.730469 271.519531 235.761719 271.519531 235.800781 C 266.242188 236.222656 260.980469 236.246094 255.691406 235.863281 C 255.421875 235.84375 255.207031 235.925781 255.046875 236.066406 Z M 307.847656 330.0625 C 307.878906 337.519531 307.917969 344.96875 307.960938 352.425781 C 295.539062 352.425781 283.109375 352.425781 270.6875 352.425781 L 270.6875 352.417969 C 270.800781 324.328125 270.414062 296.195312 269.613281 268.117188 C 269.449219 262.46875 269.34375 256.789062 268.863281 251.15625 C 268.757812 249.863281 266.722656 249.851562 266.835938 251.15625 C 267.863281 263.28125 267.804688 275.554688 268.019531 287.710938 C 268.304688 303.613281 268.484375 319.523438 268.59375 335.425781 C 268.632812 341.085938 268.675781 346.753906 268.648438 352.414062 L 268.648438 352.417969 C 264.507812 352.417969 260.363281 352.417969 256.21875 352.417969 C 256.21875 314.3125 256.21875 276.195312 256.21875 238.089844 C 256.402344 238.089844 256.578125 238.089844 256.761719 238.089844 C 256.9375 238.089844 257.089844 238.050781 257.222656 237.980469 C 262.269531 238.269531 267.300781 238.203125 272.34375 237.753906 C 273.125 237.683594 273.433594 236.910156 273.269531 236.335938 C 273.429688 236.171875 273.542969 235.957031 273.546875 235.667969 C 273.742188 230.625 273.9375 225.589844 274.132812 220.546875 C 274.152344 220.011719 273.648438 219.519531 273.117188 219.53125 C 270.558594 219.601562 268 219.660156 265.4375 219.722656 C 265.503906 198.40625 265.417969 176.867188 263.613281 155.625 C 263.507812 154.332031 261.472656 154.320312 261.585938 155.625 C 263.386719 176.878906 263.480469 198.4375 263.40625 219.773438 C 256.234375 219.9375 249.054688 220.074219 241.882812 220.175781 C 242.070312 220.011719 242.183594 219.765625 242.144531 219.425781 C 241.085938 209.300781 241.730469 198.765625 241.660156 188.601562 C 241.589844 178.148438 241.546875 167.691406 241.523438 157.234375 C 241.523438 153.011719 241.523438 148.785156 241.523438 144.5625 C 241.523438 144.480469 241.515625 144.398438 241.496094 144.332031 C 241.496094 144.109375 241.496094 143.894531 241.496094 143.675781 C 241.515625 143.554688 241.515625 143.4375 241.496094 143.316406 C 241.496094 143.132812 241.496094 142.957031 241.496094 142.773438 C 241.496094 138.621094 241.425781 134.453125 241.546875 130.300781 C 241.585938 128.996094 239.554688 128.996094 239.515625 130.300781 C 239.402344 134.371094 239.335938 138.449219 239.277344 142.527344 C 230.496094 142.71875 221.710938 142.832031 212.929688 142.867188 C 212.929688 128.789062 212.929688 114.710938 212.929688 100.632812 C 215.226562 101.878906 217.519531 103.121094 219.8125 104.371094 C 237.613281 114.039062 255.34375 123.847656 273.214844 133.375 C 274.390625 134.007812 274.601562 134.460938 275.84375 135.851562 C 279.0625 139.457031 282.277344 143.0625 285.5 146.675781 C 286.070312 147.316406 286.652344 147.96875 287.226562 148.609375 C 287.015625 197.558594 286.796875 246.507812 286.582031 295.464844 C 286.519531 309.488281 286.460938 323.519531 286.398438 337.542969 C 286.394531 338.847656 288.421875 338.855469 288.429688 337.542969 C 288.636719 288.574219 288.859375 239.601562 289.070312 190.632812 C 289.128906 177.382812 289.183594 164.136719 289.242188 150.886719 C 295.3125 157.691406 301.386719 164.492188 307.457031 171.300781 C 307.847656 171.742188 308.238281 172.175781 308.628906 172.617188 C 308.183594 193.644531 307.734375 214.667969 307.671875 235.699219 C 307.589844 267.152344 307.703125 298.609375 307.847656 330.0625 Z M 329.148438 192.859375 C 322.894531 185.746094 316.640625 178.636719 310.394531 171.527344 C 304.566406 164.992188 298.726562 158.457031 292.898438 151.917969 C 288.859375 147.394531 284.824219 142.867188 280.785156 138.34375 C 279.074219 136.425781 277.40625 133.929688 275.402344 132.3125 C 274.234375 131.371094 272.640625 130.761719 271.328125 130.054688 C 267.710938 128.085938 264.09375 126.128906 260.480469 124.160156 C 249.710938 118.3125 238.9375 112.457031 228.164062 106.605469 C 218.132812 101.15625 208.089844 95.703125 198.054688 90.25 C 195.25 88.726562 192.441406 87.199219 189.636719 85.675781 C 188.496094 85.050781 188.007812 84.683594 186.765625 85.15625 C 184.449219 86.039062 182.199219 87.632812 180.015625 88.8125 C 175.738281 91.132812 171.464844 93.445312 167.183594 95.765625 C 155.964844 101.84375 144.738281 107.917969 133.519531 114 C 124.820312 118.707031 116.121094 123.421875 107.425781 128.132812 C 105.210938 129.328125 103.707031 130.175781 101.890625 131.964844 C 93.003906 140.746094 84.964844 150.332031 76.875 159.835938 C 73.949219 163.269531 71.023438 166.707031 68.105469 170.140625 C 67.773438 170.003906 67.382812 170.023438 67.039062 170.332031 C 61.179688 175.605469 55.703125 181.292969 50.710938 187.40625 C 49.765625 188.566406 48.90625 189.824219 47.910156 190.933594 C 46.921875 192.039062 46.261719 192.859375 44.96875 192.335938 C 44.140625 192 43.296875 190.722656 42.628906 190.070312 C 39.507812 187.058594 36.390625 184.039062 33.261719 181.027344 C 33.207031 180.96875 33.148438 180.925781 33.085938 180.886719 C 43.234375 170.34375 53.085938 159.519531 62.589844 148.394531 C 67.53125 142.609375 72.386719 136.75 77.144531 130.8125 C 79.527344 127.84375 81.882812 124.855469 84.214844 121.855469 C 86.296875 119.175781 88.164062 115.992188 90.546875 113.589844 C 92.234375 111.890625 94.867188 111.019531 97.074219 109.941406 C 102.191406 107.4375 107.3125 104.9375 112.433594 102.433594 C 136.941406 90.472656 161.308594 77.964844 186.246094 66.917969 C 186.660156 66.734375 187.644531 66.261719 188.089844 66.105469 C 188.167969 66.128906 188.316406 66.152344 188.398438 66.179688 C 188.953125 66.347656 189.503906 66.683594 190.027344 66.929688 C 194.085938 68.863281 198.082031 70.945312 202.078125 73 C 215.539062 79.90625 228.933594 86.941406 242.335938 93.976562 C 254.121094 100.164062 265.902344 106.375 277.667969 112.59375 C 279.121094 113.359375 280.570312 114.125 282.011719 114.894531 C 282.285156 115.035156 283.769531 115.890625 283.367188 115.5625 C 285.398438 117.203125 287.09375 119.6875 288.832031 121.609375 C 306.613281 141.28125 324.394531 160.953125 342.175781 180.625 C 342.390625 180.863281 342.609375 181.101562 342.824219 181.34375 C 338.265625 185.179688 333.710938 189.019531 329.148438 192.859375 Z M 132.953125 248.46875 C 133.089844 248.46875 133.234375 248.46875 133.375 248.46875 C 134.433594 272.628906 134.527344 296.820312 133.664062 320.980469 C 133.65625 321.042969 133.652344 321.097656 133.65625 321.164062 C 133.398438 328.421875 133.050781 335.679688 132.617188 342.933594 C 132.585938 343.480469 133.109375 343.949219 133.632812 343.949219 C 148.273438 343.949219 162.917969 343.949219 177.558594 343.949219 C 178.105469 343.949219 178.574219 343.480469 178.574219 342.933594 C 178.574219 315.957031 178.574219 288.980469 178.574219 261.996094 C 178.59375 261.882812 178.59375 261.773438 178.574219 261.675781 C 178.574219 260.929688 178.574219 260.1875 178.574219 259.441406 C 178.574219 255.441406 178.574219 251.445312 178.574219 247.441406 C 178.574219 246.894531 178.105469 246.425781 177.558594 246.425781 C 162.691406 246.425781 147.820312 246.425781 132.953125 246.425781 C 131.648438 246.441406 131.648438 248.46875 132.953125 248.46875 Z M 176.550781 341.925781 C 162.871094 341.925781 149.1875 341.925781 135.511719 341.925781 C 143.195312 330.59375 150.171875 318.8125 156.417969 306.621094 C 162.324219 318.390625 168.582031 329.96875 175.203125 341.34375 C 175.523438 341.898438 176.113281 341.9375 176.550781 341.691406 C 176.550781 341.765625 176.550781 341.84375 176.550781 341.925781 Z M 176.550781 317.117188 C 173.089844 310.761719 169.621094 304.410156 166.164062 298.054688 C 165.539062 296.910156 164.175781 295.269531 163.9375 293.976562 C 163.761719 293.03125 163.539062 294.128906 164.574219 292.878906 C 165.773438 291.4375 166.453125 289.148438 167.214844 287.453125 C 170.4375 280.34375 173.050781 272.925781 176.550781 265.941406 C 176.550781 283.003906 176.550781 300.058594 176.550781 317.117188 Z M 139.941406 248.46875 C 150.488281 248.46875 161.027344 248.46875 171.570312 248.46875 C 165.921875 258.050781 161.390625 268.199219 156.203125 278.019531 C 151.320312 267.882812 145.367188 258.320312 139.941406 248.476562 C 139.941406 248.476562 139.941406 248.476562 139.941406 248.46875 Z M 136.027344 266.78125 C 140.394531 274.417969 144.582031 282.164062 148.507812 290.042969 C 148.929688 290.890625 150.667969 293.441406 150.652344 293.695312 C 150.632812 293.988281 150.152344 294.496094 149.996094 294.746094 C 149.003906 296.328125 148.015625 297.910156 147.027344 299.492188 C 143.296875 305.457031 139.558594 311.425781 135.824219 317.386719 C 136.355469 300.527344 136.425781 283.648438 136.027344 266.78125 Z M 149.503906 299.355469 C 150.367188 297.980469 151.445312 296.59375 152.152344 295.132812 C 153.035156 293.285156 151.742188 292.003906 150.816406 290.140625 C 146.167969 280.753906 141.175781 271.546875 135.90625 262.492188 C 135.777344 257.816406 135.613281 253.144531 135.402344 248.476562 C 136.34375 248.476562 137.28125 248.476562 138.222656 248.476562 C 138.03125 248.753906 137.976562 249.125 138.183594 249.503906 C 143.925781 259.910156 150.261719 269.996094 155.285156 280.777344 C 155.492188 281.226562 155.871094 281.359375 156.234375 281.285156 C 156.542969 281.285156 156.847656 281.136719 157.035156 280.777344 C 162.621094 270.429688 167.339844 259.644531 173.316406 249.503906 C 173.542969 249.117188 173.488281 248.753906 173.292969 248.476562 C 174.375 248.476562 175.460938 248.476562 176.539062 248.476562 C 176.539062 252.855469 176.539062 257.230469 176.539062 261.613281 C 171.929688 269.835938 168.96875 278.855469 165.015625 287.390625 C 164.109375 289.355469 161.460938 292.476562 161.941406 294.582031 C 162.191406 295.691406 163.269531 297.023438 163.804688 298.003906 C 168.046875 305.789062 172.296875 313.578125 176.539062 321.363281 C 176.539062 324.554688 176.539062 327.75 176.539062 330.9375 C 176.539062 333.832031 176.539062 336.726562 176.539062 339.617188 C 169.804688 328.007812 163.441406 316.191406 157.445312 304.183594 C 156.898438 303.078125 155.308594 303.929688 155.617188 305.007812 C 155.269531 304.957031 154.90625 305.089844 154.699219 305.503906 C 148.742188 317.128906 142.117188 328.378906 134.855469 339.234375 C 135.183594 333.300781 135.460938 327.363281 135.675781 321.433594 C 140.289062 314.078125 144.894531 306.714844 149.503906 299.355469 Z M 200.632812 248.46875 C 200.773438 248.46875 200.917969 248.46875 201.054688 248.46875 C 201.257812 253.050781 201.421875 257.640625 201.554688 262.230469 C 201.328125 262.511719 201.25 262.902344 201.492188 263.3125 C 201.523438 263.371094 201.558594 263.433594 201.59375 263.488281 C 202.109375 282.46875 202.039062 301.453125 201.371094 320.425781 C 201.332031 320.480469 201.300781 320.539062 201.265625 320.59375 C 201.003906 321.003906 201.085938 321.410156 201.320312 321.691406 C 201.085938 328.152344 200.777344 334.621094 200.40625 341.074219 C 200.3125 341.210938 200.222656 341.351562 200.128906 341.484375 C 199.800781 341.960938 199.964844 342.429688 200.3125 342.707031 C 200.304688 342.78125 200.304688 342.863281 200.300781 342.941406 C 200.269531 343.488281 200.792969 343.953125 201.316406 343.953125 C 215.957031 343.953125 230.597656 343.953125 245.242188 343.953125 C 245.789062 343.953125 246.253906 343.488281 246.253906 342.941406 C 246.253906 315.113281 246.253906 287.285156 246.253906 259.457031 C 246.253906 255.453125 246.253906 251.457031 246.253906 247.453125 C 246.253906 246.90625 245.789062 246.441406 245.242188 246.441406 C 230.371094 246.441406 215.503906 246.441406 200.632812 246.441406 C 199.324219 246.441406 199.324219 248.46875 200.632812 248.46875 Z M 244.226562 318.609375 C 240.796875 311.683594 237.367188 304.761719 233.945312 297.835938 C 233.421875 296.78125 232.105469 295.085938 232.003906 293.914062 C 231.996094 293.851562 231.941406 293.78125 231.890625 293.710938 C 232.125 293.65625 232.792969 292.660156 232.894531 292.457031 C 233.757812 290.75 234.519531 288.992188 235.242188 287.214844 C 238.34375 279.613281 240.476562 271.550781 244.226562 264.222656 C 244.226562 282.355469 244.226562 300.480469 244.226562 318.609375 Z M 206.710938 248.46875 C 217.25 248.46875 227.792969 248.46875 238.339844 248.46875 C 233 257.550781 229.167969 267.351562 224.320312 276.675781 C 219.304688 266.761719 212.117188 258.164062 206.710938 248.476562 C 206.710938 248.476562 206.710938 248.476562 206.710938 248.46875 Z M 202.398438 341.734375 C 210.03125 330.460938 216.964844 318.742188 223.179688 306.621094 C 229.085938 318.390625 235.34375 329.96875 241.964844 341.34375 C 242.617188 342.472656 244.378906 341.453125 243.714844 340.316406 C 236.832031 328.480469 230.332031 316.429688 224.21875 304.183594 C 223.671875 303.078125 222.082031 303.929688 222.390625 305.007812 C 222.046875 304.957031 221.679688 305.089844 221.472656 305.503906 C 215.792969 316.597656 209.503906 327.359375 202.625 337.753906 C 202.929688 332.1875 203.175781 326.613281 203.375 321.042969 C 207.902344 313.8125 212.425781 306.582031 216.945312 299.355469 C 217.808594 297.980469 218.886719 296.59375 219.59375 295.132812 C 220.476562 293.285156 219.183594 292.003906 218.257812 290.140625 C 213.679688 280.898438 208.769531 271.839844 203.597656 262.921875 C 203.464844 258.105469 203.292969 253.292969 203.078125 248.476562 C 203.714844 248.476562 204.347656 248.476562 204.984375 248.476562 C 204.792969 248.753906 204.738281 249.125 204.953125 249.503906 C 210.675781 259.753906 218.382812 268.773438 223.40625 279.429688 C 223.613281 279.871094 223.992188 280.003906 224.351562 279.933594 C 224.660156 279.933594 224.964844 279.789062 225.160156 279.429688 C 230.449219 269.597656 234.417969 259.148438 240.085938 249.503906 C 240.3125 249.117188 240.253906 248.753906 240.058594 248.476562 C 241.445312 248.476562 242.832031 248.476562 244.21875 248.476562 C 244.21875 252.597656 244.21875 256.714844 244.21875 260.835938 C 243.929688 260.855469 243.652344 260.992188 243.464844 261.328125 C 239.15625 268.992188 236.902344 277.589844 233.667969 285.714844 C 232.714844 288.109375 231.574219 290.367188 230.480469 292.691406 C 230.023438 293.65625 229.867188 293.585938 230.039062 294.539062 C 230.226562 295.578125 231.183594 296.859375 231.644531 297.785156 C 235.578125 305.734375 239.515625 313.679688 243.449219 321.628906 C 243.628906 321.996094 243.921875 322.144531 244.21875 322.144531 C 244.21875 325.082031 244.21875 328.015625 244.21875 330.953125 C 244.21875 334.613281 244.21875 338.273438 244.21875 341.929688 C 230.277344 341.929688 216.328125 341.929688 202.386719 341.929688 C 202.390625 341.863281 202.398438 341.796875 202.398438 341.734375 Z M 203.710938 267.203125 C 207.988281 274.710938 212.09375 282.3125 215.949219 290.042969 C 216.371094 290.890625 218.113281 293.441406 218.09375 293.695312 C 218.074219 293.988281 217.59375 294.496094 217.4375 294.746094 C 216.449219 296.328125 215.457031 297.910156 214.46875 299.492188 C 210.820312 305.328125 207.164062 311.160156 203.515625 316.996094 C 204.03125 300.40625 204.09375 283.796875 203.710938 267.203125 Z M 108.300781 133.488281 C 108.1875 132.183594 110.222656 132.199219 110.332031 133.488281 C 112.175781 155.273438 112.226562 177.371094 112.144531 199.21875 C 112.144531 200.527344 110.109375 200.523438 110.117188 199.21875 C 110.199219 177.363281 110.148438 155.265625 108.300781 133.488281 Z M 184.707031 119.832031 C 185.058594 109.457031 185.414062 99.082031 185.765625 88.707031 C 185.808594 87.402344 187.839844 87.402344 187.792969 88.707031 C 187.441406 99.082031 187.089844 109.457031 186.734375 119.832031 C 186.691406 121.136719 184.65625 121.140625 184.707031 119.832031 Z M 229.453125 153.878906 C 215.566406 153.878906 201.679688 153.878906 187.792969 153.878906 C 187.535156 153.058594 186.230469 153.058594 185.890625 153.878906 C 172.132812 153.878906 158.371094 153.878906 144.605469 153.878906 C 144.253906 152.929688 142.609375 153.035156 142.644531 154.21875 C 142.898438 162.324219 142.609375 170.382812 141.871094 178.457031 C 141.796875 179.28125 142.589844 179.578125 143.207031 179.355469 C 143.339844 179.425781 143.496094 179.476562 143.6875 179.476562 C 172.269531 179.476562 200.859375 179.476562 229.445312 179.476562 C 230.75 179.476562 230.757812 177.445312 229.445312 177.445312 C 215.507812 177.445312 201.566406 177.445312 187.628906 177.445312 C 187.421875 170.269531 187.480469 163.089844 187.777344 155.914062 C 201.328125 155.914062 214.878906 155.914062 228.429688 155.914062 C 228.429688 160.964844 228.429688 166.007812 228.429688 171.054688 C 228.429688 172.359375 230.460938 172.367188 230.460938 171.054688 C 230.460938 165.671875 230.460938 160.285156 230.460938 154.902344 C 230.464844 154.347656 230 153.878906 229.453125 153.878906 Z M 185.601562 177.441406 C 171.726562 177.441406 157.863281 177.441406 143.988281 177.441406 C 144.605469 170.269531 144.871094 163.105469 144.714844 155.910156 C 158.390625 155.910156 172.070312 155.910156 185.746094 155.910156 C 185.449219 163.082031 185.394531 170.261719 185.601562 177.441406 Z M 327.90625 175.699219 C 328.707031 176.742188 326.933594 177.75 326.152344 176.726562 C 317.6875 165.679688 308.636719 155.097656 299.050781 145.003906 C 298.148438 144.054688 299.585938 142.617188 300.488281 143.566406 C 310.195312 153.785156 319.332031 164.507812 327.90625 175.699219 Z M 317.011719 172.09375 C 317.746094 173.1875 315.984375 174.207031 315.261719 173.121094 C 312.691406 169.265625 309.878906 165.601562 306.828125 162.117188 C 305.96875 161.132812 307.402344 159.699219 308.265625 160.679688 C 311.429688 164.292969 314.347656 168.097656 317.011719 172.09375 Z M 250.546875 107.238281 C 233.726562 99.175781 217.300781 90.324219 201.320312 80.703125 C 200.207031 80.027344 201.226562 78.273438 202.347656 78.949219 C 218.332031 88.566406 234.753906 97.421875 251.574219 105.484375 C 252.753906 106.050781 251.71875 107.804688 250.546875 107.238281 Z M 262.957031 114.566406 C 261.585938 113.683594 260.210938 112.808594 258.835938 111.925781 C 257.738281 111.226562 258.761719 109.46875 259.863281 110.175781 C 261.238281 111.058594 262.613281 111.933594 263.984375 112.816406 C 265.082031 113.515625 264.0625 115.273438 262.957031 114.566406 Z M 151.023438 90.773438 C 140.214844 97 129.398438 103.234375 118.582031 109.46875 C 117.441406 110.125 116.417969 108.371094 117.554688 107.714844 C 128.363281 101.488281 139.179688 95.253906 149.996094 89.019531 C 151.128906 88.367188 152.152344 90.117188 151.023438 90.773438 Z M 82 140.59375 C 72.390625 151.402344 62.785156 162.207031 53.179688 173.015625 C 52.3125 173.992188 50.878906 172.554688 51.742188 171.578125 C 61.347656 160.769531 70.957031 149.964844 80.5625 139.15625 C 81.429688 138.179688 82.863281 139.621094 82 140.59375 Z M 82 140.59375 " fill-opacity="1" fill-rule="nonzero"/></g></svg>