<svg width="34" height="35" viewBox="0 0 34 35" fill="none" xmlns="http://www.w3.org/2000/svg">
<path d="M14.4365 2.32153C12.5838 2.35274 10.9103 3.45774 10.1533 5.16638L19.2177 7.90431C19.6162 5.52763 18.1884 3.22333 15.8908 2.52407C15.4791 2.39923 15.0474 2.33083 14.6158 2.32153H14.4365ZM9.80797 6.31122C9.4029 8.69454 10.8306 11.0055 13.1349 11.7027C15.4459 12.4 17.9095 11.2578 18.8791 9.04649L9.80797 6.31122ZM27.4388 9.25235C25.7588 9.25899 23.9724 10.0691 22.6244 11.975L14.3369 23.7223C12.1123 26.8699 13.0818 30.1637 15.2732 31.7176C17.4713 33.2781 20.8912 33.0988 23.1158 29.9512L31.3966 18.2106C33.6213 15.0563 32.6517 11.7691 30.4603 10.2086C29.6369 9.62423 28.6474 9.28556 27.6048 9.25235H27.4388ZM27.3193 10.4012C27.4056 10.4012 27.492 10.4012 27.5716 10.4078C28.3752 10.441 29.1322 10.7266 29.7697 11.1848C31.4763 12.3934 32.333 14.8039 30.4138 17.5199L26.1306 23.5961C23.7533 22.9586 20.6986 20.7871 19.3107 18.7484L23.6072 12.6656C24.7295 11.0785 26.0642 10.4277 27.3193 10.4012ZM6.05934 15.4613C5.42051 15.468 4.79032 15.6008 4.20461 15.8598C2.0059 16.8227 0.861724 19.2797 1.53243 21.5906L10.2131 17.7988C9.34313 16.3313 7.76266 15.4414 6.05934 15.4613ZM10.6845 18.8879L2.00524 22.6863C3.23044 24.7715 5.81032 25.6082 8.02165 24.6453C10.2263 23.6758 11.3685 21.2055 10.6845 18.8879Z" fill="#00681D"/>
</svg>
